<?xml version="1.0" encoding="UTF-8"?>
<svg version="1.1" xmlns="http://www.w3.org/2000/svg" width="500" height="500">
<path d="M0 0 C6.27 0 12.54 0 19 0 C20.87912514 1.87912514 20.12623495 5.10565818 20.12698364 7.60534668 C20.12854363 8.30378299 20.13010362 9.00221931 20.13171089 9.72182035 C20.13572316 12.07954186 20.13253038 14.43719981 20.12939453 16.79492188 C20.13074847 18.47815489 20.13252836 20.1613876 20.13470459 21.84461975 C20.13927978 26.42919955 20.13748901 31.01375696 20.1343255 35.59833717 C20.13180234 40.38517952 20.13413932 45.17201989 20.13571167 49.9588623 C20.1375335 57.99910834 20.13512672 66.0393452 20.13037109 74.07958984 C20.12492845 83.38916048 20.1266911 92.69870922 20.1321975 102.00827932 C20.13672826 109.9861703 20.13737936 117.96405466 20.13475883 125.94194651 C20.13319585 130.71341212 20.13300285 135.48486743 20.13629532 140.2563324 C20.1391735 144.74107837 20.13719932 149.22579597 20.13140106 153.71053886 C20.13007318 155.36137787 20.13046806 157.01221925 20.13266373 158.66305733 C20.13537413 160.90695544 20.13199548 163.15076118 20.12698364 165.39465332 C20.12660662 166.65344551 20.12622959 167.9122377 20.12584114 169.20917511 C20 172 20 172 19 173 C12.73 173 6.46 173 0 173 C0 115.91 0 58.82 0 0 Z " fill="#21B3B6" transform="translate(279,119)"/>
<path d="M0 0 C6.27 0 12.54 0 19 0 C19 47.19 19 94.38 19 143 C12.73 143 6.46 143 0 143 C-1.73683988 141.26316012 -1.12612457 138.89771069 -1.12698364 136.53356934 C-1.12980347 135.34724411 -1.13262329 134.16091888 -1.13552856 132.93864441 C-1.13350433 131.6253566 -1.1314801 130.31206879 -1.12939453 128.95898438 C-1.13074855 127.57131403 -1.13252848 126.18364404 -1.13470459 124.79597473 C-1.13927888 121.01715279 -1.13748938 117.23835804 -1.1343255 113.4595356 C-1.13180188 109.51350962 -1.13413945 105.56748603 -1.13571167 101.62145996 C-1.13753336 94.99356669 -1.13512708 88.36568455 -1.13037109 81.73779297 C-1.12492847 74.06416797 -1.12669113 66.39056953 -1.1321975 58.71694517 C-1.13672865 52.14031607 -1.13737917 45.56369499 -1.13475883 38.98706484 C-1.13319607 35.05396877 -1.13300227 31.1208852 -1.13629532 27.18778992 C-1.13917406 23.49098651 -1.13719829 19.7942175 -1.13140106 16.09741783 C-1.12943784 14.08539757 -1.13242735 12.07337442 -1.13552856 10.06135559 C-1.13270874 8.87503036 -1.12988892 7.68870514 -1.12698364 6.46643066 C-1.1264181 4.91008785 -1.1264181 4.91008785 -1.12584114 3.32230377 C-1 1 -1 1 0 0 Z " fill="#10B0B1" transform="translate(247,149)"/>
<path d="M0 0 C1.4583982 0.00399197 2.91679743 0.01875035 4.375 0.04296875 C5.11234375 0.04361328 5.8496875 0.04425781 6.609375 0.04492188 C12.09398191 0.08995971 12.09398191 0.08995971 14.375 1.23046875 C14.375 36.54046875 14.375 71.85046875 14.375 108.23046875 C8.105 108.23046875 1.835 108.23046875 -4.625 108.23046875 C-6.16361654 106.69185221 -5.75405102 105.28158917 -5.75871277 103.13746643 C-5.76297775 102.25549591 -5.76724274 101.37352539 -5.77163696 100.46482849 C-5.77095718 99.00219322 -5.77095718 99.00219322 -5.77026367 97.51000977 C-5.77362228 96.48895142 -5.7769809 95.46789307 -5.78044128 94.41589355 C-5.7899832 91.02204185 -5.791896 87.6282393 -5.79296875 84.234375 C-5.79617902 81.88646931 -5.79954291 79.53856383 -5.80305481 77.19065857 C-5.80905416 72.26178524 -5.81089388 67.33292946 -5.81030273 62.40405273 C-5.81020105 56.07392873 -5.82385599 49.74391674 -5.84107494 43.41381931 C-5.85216814 38.56267271 -5.85422277 33.71155342 -5.85369301 28.86039543 C-5.85487708 26.52590486 -5.85932255 24.19141367 -5.86702538 21.8569355 C-5.87677154 18.59798355 -5.87396857 15.33927779 -5.86791992 12.08032227 C-5.87353943 11.10725632 -5.87915894 10.13419037 -5.88494873 9.13163757 C-5.88075424 8.24684723 -5.87655975 7.36205688 -5.87223816 6.45045471 C-5.87278293 5.67929101 -5.87332769 4.90812731 -5.87388897 4.11359501 C-5.36589328 0.27003364 -3.58917199 0.22819089 0 0 Z " fill="#0EB1B3" transform="translate(219.625,183.76953125)"/>
<path d="M0 0 C6.27 0 12.54 0 19 0 C20.85898062 1.85898062 20.12777665 4.94960197 20.12939453 7.43164062 C20.13114685 8.10317673 20.13289917 8.77471283 20.13470459 9.46659851 C20.1391223 11.69650828 20.13618542 13.92633936 20.1328125 16.15625 C20.13348556 17.69942236 20.13445561 19.24259461 20.13571167 20.7857666 C20.13718853 24.0240174 20.13503447 27.26224067 20.13037109 30.50048828 C20.1246738 34.66042523 20.12795287 38.82029766 20.13394356 42.98023224 C20.13754949 46.16799408 20.13641044 49.35574051 20.13381577 52.54350281 C20.13314658 54.07777412 20.13397461 55.61204682 20.13629532 57.14631653 C20.13882238 59.28703541 20.13498054 61.42764842 20.12939453 63.56835938 C20.12859894 64.78890015 20.12780334 66.00944092 20.12698364 67.26696777 C20 70 20 70 19 71 C12.73 71 6.46 71 0 71 C0 47.57 0 24.14 0 0 Z " fill="#11B0B1" transform="translate(182,221)"/>
<path d="M0 0 C2.4375 1 2.4375 1 4 2 C4 2.66 4 3.32 4 4 C5.5159375 3.01 5.5159375 3.01 7.0625 2 C10.86452407 -0.14630391 13.59678637 -0.64046744 18 0 C22.00440613 2.11553532 24.37507986 3.76900493 26 8 C26.22705078 10.56542969 26.22705078 10.56542969 26.1953125 13.421875 C26.18886719 14.44667969 26.18242187 15.47148437 26.17578125 16.52734375 C26.15902344 17.59082031 26.14226562 18.65429688 26.125 19.75 C26.11597656 20.82894531 26.10695313 21.90789062 26.09765625 23.01953125 C26.0741142 25.67978249 26.03824397 28.33991949 26 31 C22.7 31 19.4 31 16 31 C15.67 24.4 15.34 17.8 15 11 C11.25308553 9.60229416 11.25308553 9.60229416 9 11 C8.67 17.6 8.34 24.2 8 31 C4.7 31 1.4 31 -2 31 C-3 30 -3 30 -3.11352539 28.05053711 C-3.10828857 27.2178833 -3.10305176 26.38522949 -3.09765625 25.52734375 C-3.09443359 24.62822266 -3.09121094 23.72910156 -3.08789062 22.80273438 C-3.07951172 21.85720703 -3.07113281 20.91167969 -3.0625 19.9375 C-3.05798828 18.98810547 -3.05347656 18.03871094 -3.04882812 17.06054688 C-3.0370011 14.70696935 -3.02052025 12.35351523 -3 10 C-5.31 10 -7.62 10 -10 10 C-10.33 16.93 -10.66 23.86 -11 31 C-14.3 31 -17.6 31 -21 31 C-21 21.1 -21 11.2 -21 1 C-17.04 1 -13.08 1 -9 1 C-5.97562661 -0.5121867 -3.33758466 -0.17263369 0 0 Z " fill="#114A7B" transform="translate(267,324)"/>
<path d="M0 0 C3.3 0 6.6 0 10 0 C10.33 5.94 10.66 11.88 11 18 C12.32 16.35 13.64 14.7 15 13 C15.66 13 16.32 13 17 13 C17 12.34 17 11.68 17 11 C19.52475462 9.73762269 21.31200466 9.90143596 24.125 9.9375 C25.03507812 9.94652344 25.94515625 9.95554687 26.8828125 9.96484375 C27.93082031 9.98224609 27.93082031 9.98224609 29 10 C28.41463247 13.66060821 26.916761 15.54535164 24.4375 18.25 C23.79683594 18.95640625 23.15617187 19.6628125 22.49609375 20.390625 C22.00238281 20.92171875 21.50867188 21.4528125 21 22 C23.38912934 26.48342995 25.79047805 30.84481884 28.8125 34.9375 C31 38 31 38 31 40 C27.04 40 23.08 40 19 40 C18.34 38.02 17.68 36.04 17 34 C16.34 34 15.68 34 15 34 C14.34 32.68 13.68 31.36 13 30 C10.70424397 32.29575603 10.67660401 33.00842525 10.375 36.125 C10.25125 37.40375 10.1275 38.6825 10 40 C6.7 40 3.4 40 0 40 C0 26.8 0 13.6 0 0 Z " fill="#0E487A" transform="translate(350,315)"/>
<path d="M0 0 C4.83933207 2.37401196 7.52322134 5.22990776 10 10 C10.64332602 12.73916155 10.85580416 15.16414858 11 18 C9.41596476 19.58403524 7.7228362 19.21974935 5.52734375 19.31640625 C4.62822266 19.35830078 3.72910156 19.40019531 2.80273438 19.44335938 C1.85720703 19.48267578 0.91167969 19.52199219 -0.0625 19.5625 C-1.01189453 19.60568359 -1.96128906 19.64886719 -2.93945312 19.69335938 C-5.29281353 19.79979276 -7.64628354 19.90181008 -10 20 C-8.01280395 22.42727246 -8.01280395 22.42727246 -4.125 22.25 C-0.94603525 22.18064077 1.29617618 21.80254921 4 20 C6.5 21.8125 6.5 21.8125 9 24 C9 27 9 27 7.671875 28.421875 C2.30470437 32.13089536 -1.79930038 32.51543261 -8.22265625 31.640625 C-13.21360605 30.48940732 -15.88613527 28.5222818 -18.875 24.4375 C-20.87886722 18.31457239 -21.12552618 12.47615759 -18.4375 6.5625 C-13.02862378 0.87624551 -7.77629946 -1.39065209 0 0 Z M-8.25 10 C-8.8275 10.66 -9.405 11.32 -10 12 C-6.7 12 -3.4 12 0 12 C-0.66 10.68 -1.32 9.36 -2 8 C-6.00346023 7.55709077 -6.00346023 7.55709077 -8.25 10 Z " fill="#34618A" transform="translate(233,324)"/>
<path d="M0 0 C4.84690542 4.01938498 4.84690542 4.01938498 5.5625 8.125 C5.64161543 9.78489282 5.67028885 11.4476287 5.66015625 13.109375 C5.65693359 14.04394531 5.65371094 14.97851562 5.65039062 15.94140625 C5.64201172 16.90949219 5.63363281 17.87757813 5.625 18.875 C5.62048828 19.85855469 5.61597656 20.84210938 5.61132812 21.85546875 C5.59956483 24.27870791 5.58312684 26.70182273 5.5625 29.125 C1.89583333 29.125 -1.77083333 29.125 -5.4375 29.125 C-6.31019531 29.18300781 -7.18289063 29.24101562 -8.08203125 29.30078125 C-16.55747696 29.66655264 -16.55747696 29.66655264 -20.6875 27.125 C-22.94064541 23.26246501 -23.47894356 20.48494169 -22.4375 16.125 C-20.26164783 12.55038573 -18.48127948 11.38424822 -14.43359375 10.37890625 C-11.43816014 9.86611065 -8.45883349 9.44785382 -5.4375 9.125 C-5.4375 8.465 -5.4375 7.805 -5.4375 7.125 C-9.3975 7.785 -13.3575 8.445 -17.4375 9.125 C-20.4375 5.125 -20.4375 5.125 -20.5625 3.0625 C-19.08316347 0.51475376 -17.24992676 -0.32305084 -14.53515625 -1.33203125 C-9.13043127 -2.73101965 -4.93179077 -2.69006769 0 0 Z M-13.4375 18.125 C-13.1075 19.445 -12.7775 20.765 -12.4375 22.125 C-9.52097826 22.29181109 -9.52097826 22.29181109 -6.4375 22.125 C-5.7775 21.465 -5.1175 20.805 -4.4375 20.125 C-4.4375 18.805 -4.4375 17.485 -4.4375 16.125 C-7.81773517 16.125 -10.27218937 16.99955622 -13.4375 18.125 Z " fill="#114779" transform="translate(318.4375,325.875)"/>
<path d="M0 0 C3.3 0 6.6 0 10 0 C10.33 6.93 10.66 13.86 11 21 C12.98 21 14.96 21 17 21 C19.0140956 17.9788566 19.26836596 17.19339983 19.4140625 13.76953125 C19.45273438 12.96708984 19.49140625 12.16464844 19.53125 11.33789062 C19.57765625 10.08782227 19.57765625 10.08782227 19.625 8.8125 C19.66367188 7.96751953 19.70234375 7.12253906 19.7421875 6.25195312 C19.83636279 4.16832476 19.91926675 2.08419247 20 0 C22.97 0 25.94 0 29 0 C29 9.9 29 19.8 29 30 C25.33333333 30 21.66666667 30 18 30 C17.19949219 30.04640625 16.39898437 30.0928125 15.57421875 30.140625 C7.79043376 30.43554513 7.79043376 30.43554513 3.9375 28.3125 C0.69581828 24.44339601 -0.25659656 20.91261951 -0.1953125 15.91796875 C-0.18886719 14.98662109 -0.18242187 14.05527344 -0.17578125 13.09570312 C-0.15902344 12.13599609 -0.14226562 11.17628906 -0.125 10.1875 C-0.11597656 9.20845703 -0.10695312 8.22941406 -0.09765625 7.22070312 C-0.07417326 4.81369652 -0.03830477 2.40681636 0 0 Z " fill="#1A5282" transform="translate(180,325)"/>
<path d="M0 0 C0 2.64 0 5.28 0 8 C-3.96 8 -7.92 8 -12 8 C-12 17.9 -12 27.8 -12 38 C-14.97 38 -17.94 38 -21 38 C-21 28.1 -21 18.2 -21 8 C-24.96 8 -28.92 8 -33 8 C-33 5.36 -33 2.72 -33 0 C-28.62196815 -0.16750929 -24.24375401 -0.32807935 -19.86523438 -0.48217773 C-18.37525558 -0.53560003 -16.88534391 -0.59092962 -15.39550781 -0.64819336 C-13.25600663 -0.73009836 -11.11635907 -0.80517709 -8.9765625 -0.87890625 C-7.04417725 -0.94960327 -7.04417725 -0.94960327 -5.07275391 -1.02172852 C-2 -1 -2 -1 0 0 Z " fill="#1E527F" transform="translate(158,317)"/>
<path d="M0 0 C2.4375 1 2.4375 1 4 2 C3.67 3.32 3.34 4.64 3 6 C1.35 6 -0.3 6 -2 6 C-1.2236068 9.0745356 -1.2236068 9.0745356 1 11 C1.14507695 13.74485593 1.18652423 16.38480543 1.125 19.125 C1.11597656 19.87910156 1.10695313 20.63320313 1.09765625 21.41015625 C1.0740687 23.27357254 1.03819719 25.13682593 1 27 C1.804375 27.12375 2.60875 27.2475 3.4375 27.375 C4.7059375 27.684375 4.7059375 27.684375 6 28 C6.33 28.66 6.66 29.32 7 30 C7 24.06 7 18.12 7 12 C7.33 12 7.66 12 8 12 C8 18.27 8 24.54 8 31 C0.28515625 31.09765625 0.28515625 31.09765625 -2 31 C-3 30 -3 30 -3.11352539 28.05053711 C-3.10828857 27.2178833 -3.10305176 26.38522949 -3.09765625 25.52734375 C-3.09443359 24.62822266 -3.09121094 23.72910156 -3.08789062 22.80273438 C-3.07951172 21.85720703 -3.07113281 20.91167969 -3.0625 19.9375 C-3.05798828 18.98810547 -3.05347656 18.03871094 -3.04882812 17.06054688 C-3.0370011 14.70696935 -3.02052025 12.35351523 -3 10 C-5.31 10 -7.62 10 -10 10 C-10.33 16.93 -10.66 23.86 -11 31 C-14.3 31 -17.6 31 -21 31 C-21 21.1 -21 11.2 -21 1 C-17.04 1 -13.08 1 -9 1 C-5.97562661 -0.5121867 -3.33758466 -0.17263369 0 0 Z " fill="#104B7C" transform="translate(267,324)"/>
<path d="M0 0 C6.27 0 12.54 0 19 0 C19 47.19 19 94.38 19 143 C12.73 143 6.46 143 0 143 C-1.73683988 141.26316012 -1.12612457 138.89771069 -1.12698364 136.53356934 C-1.12980347 135.34724411 -1.13262329 134.16091888 -1.13552856 132.93864441 C-1.13350433 131.6253566 -1.1314801 130.31206879 -1.12939453 128.95898438 C-1.13074855 127.57131403 -1.13252848 126.18364404 -1.13470459 124.79597473 C-1.13927888 121.01715279 -1.13748938 117.23835804 -1.1343255 113.4595356 C-1.13180188 109.51350962 -1.13413945 105.56748603 -1.13571167 101.62145996 C-1.13753336 94.99356669 -1.13512708 88.36568455 -1.13037109 81.73779297 C-1.12492847 74.06416797 -1.12669113 66.39056953 -1.1321975 58.71694517 C-1.13672865 52.14031607 -1.13737917 45.56369499 -1.13475883 38.98706484 C-1.13319607 35.05396877 -1.13300227 31.1208852 -1.13629532 27.18778992 C-1.13917406 23.49098651 -1.13719829 19.7942175 -1.13140106 16.09741783 C-1.12943784 14.08539757 -1.13242735 12.07337442 -1.13552856 10.06135559 C-1.13270874 8.87503036 -1.12988892 7.68870514 -1.12698364 6.46643066 C-1.1264181 4.91008785 -1.1264181 4.91008785 -1.12584114 3.32230377 C-1 1 -1 1 0 0 Z M1 1 C0.97667191 19.23645998 0.95902127 37.47291611 0.94818783 55.70938778 C0.94302468 64.17629939 0.93598162 72.64320175 0.92456055 81.11010742 C0.91461428 88.48717094 0.90814671 95.86422775 0.90591151 103.24129778 C0.9046043 107.14982053 0.90151783 111.05832412 0.89426994 114.96684074 C0.88751063 118.64146442 0.88538285 122.31606093 0.88689232 125.99069023 C0.88648362 127.99079611 0.88108796 129.99089898 0.87557983 131.99099731 C0.8769545 133.17035355 0.87832916 134.34970978 0.87974548 135.56480408 C0.87882369 136.59629043 0.8779019 137.62777678 0.87695217 138.69052029 C0.73997947 140.96280759 0.73997947 140.96280759 2 142 C4.69654854 142.07319621 7.36691458 142.09242537 10.0625 142.0625 C11.20041992 142.05573242 11.20041992 142.05573242 12.36132812 142.04882812 C14.24091871 142.0370068 16.12046899 142.01907078 18 142 C18.02332809 123.76354002 18.04097873 105.52708389 18.05181217 87.29061222 C18.05697532 78.82370061 18.06401838 70.35679825 18.07543945 61.88989258 C18.08538572 54.51282906 18.09185329 47.13577225 18.09408849 39.75870222 C18.0953957 35.85017947 18.09848217 31.94167588 18.10573006 28.03315926 C18.11248937 24.35853558 18.11461715 20.68393907 18.11310768 17.00930977 C18.11351638 15.00920389 18.11891204 13.00910102 18.12442017 11.00900269 C18.1230455 9.82964645 18.12167084 8.65029022 18.12025452 7.43519592 C18.12117631 6.40370957 18.1220981 5.37222322 18.12304783 4.30947971 C18.26002053 2.03719241 18.26002053 2.03719241 17 1 C14.30345146 0.92680379 11.63308542 0.90757463 8.9375 0.9375 C7.79958008 0.94426758 7.79958008 0.94426758 6.63867188 0.95117188 C4.75908129 0.9629932 2.87953101 0.98092922 1 1 Z " fill="#71CBCC" transform="translate(247,149)"/>
<path d="M0 0 C1.4540625 0.0309375 1.4540625 0.0309375 2.9375 0.0625 C2.9375 3.3625 2.9375 6.6625 2.9375 10.0625 C0.88671875 10.51822917 -1.1640625 10.97395833 -3.21484375 11.4296875 C-5.26950294 11.89211523 -5.26950294 11.89211523 -6.0625 14.0625 C-6.29524209 16.94160588 -6.48222757 19.80396495 -6.625 22.6875 C-6.66818359 23.48929687 -6.71136719 24.29109375 -6.75585938 25.1171875 C-6.86201457 27.0987511 -6.96276855 29.08060271 -7.0625 31.0625 C-8.54156892 31.08939216 -10.02077483 31.10884621 -11.5 31.125 C-12.73556641 31.14240234 -12.73556641 31.14240234 -13.99609375 31.16015625 C-16.0625 31.0625 -16.0625 31.0625 -17.0625 30.0625 C-17.15025605 27.91691173 -17.16945219 25.76845579 -17.16015625 23.62109375 C-17.15693359 22.31591797 -17.15371094 21.01074219 -17.15039062 19.66601562 C-17.14203401 18.2773431 -17.13356905 16.88867123 -17.125 15.5 C-17.11998666 14.10742344 -17.11542347 12.71484519 -17.11132812 11.32226562 C-17.09949434 7.9023013 -17.0830088 4.48242156 -17.0625 1.0625 C-12.72916667 1.0625 -8.39583333 1.0625 -4.0625 1.0625 C-3.0625 0.0625 -3.0625 0.0625 0 0 Z " fill="#144A7A" transform="translate(175.0625,323.9375)"/>
<path d="M0 0 C1 1 1 1 1.09765625 3.06640625 C1.08605469 3.89011719 1.07445312 4.71382813 1.0625 5.5625 C1.05347656 6.38878906 1.04445313 7.21507812 1.03515625 8.06640625 C1.02355469 8.70449219 1.01195312 9.34257812 1 10 C-0.11375 10.12375 -1.2275 10.2475 -2.375 10.375 C-6.03103677 10.6465813 -6.03103677 10.6465813 -8 13 C-8.36831081 14.93257855 -8.36831081 14.93257855 -8.4140625 17.1328125 C-8.47207031 18.34130859 -8.47207031 18.34130859 -8.53125 19.57421875 C-8.57765625 20.83685547 -8.57765625 20.83685547 -8.625 22.125 C-8.68300781 23.39923828 -8.68300781 23.39923828 -8.7421875 24.69921875 C-8.83656494 26.79911684 -8.91937586 28.89952891 -9 31 C-12.3 31 -15.6 31 -19 31 C-19 21.1 -19 11.2 -19 1 C-15.04 1 -11.08 1 -7 1 C-4.51588385 -0.24205807 -2.74800896 -0.14092354 0 0 Z " fill="#275C8A" transform="translate(347,324)"/>
<path d="M0 0 C1.47668858 0.0133035 2.95331108 0.03716415 4.4296875 0.0703125 C5.18378906 0.07933594 5.93789062 0.08835938 6.71484375 0.09765625 C8.57826004 0.1212438 10.44151343 0.15711531 12.3046875 0.1953125 C12.3046875 0.8553125 12.3046875 1.5153125 12.3046875 2.1953125 C7.0246875 2.1953125 1.7446875 2.1953125 -3.6953125 2.1953125 C-3.3653125 36.5153125 -3.0353125 70.8353125 -2.6953125 106.1953125 C2.5846875 106.5253125 7.8646875 106.8553125 13.3046875 107.1953125 C13.3046875 72.2153125 13.3046875 37.2353125 13.3046875 1.1953125 C13.6346875 1.1953125 13.9646875 1.1953125 14.3046875 1.1953125 C14.3046875 36.5053125 14.3046875 71.8153125 14.3046875 108.1953125 C8.0346875 108.1953125 1.7646875 108.1953125 -4.6953125 108.1953125 C-6.23392904 106.65669596 -5.82436352 105.24643292 -5.82902527 103.10231018 C-5.83329025 102.22033966 -5.83755524 101.33836914 -5.84194946 100.42967224 C-5.84126968 98.96703697 -5.84126968 98.96703697 -5.84057617 97.47485352 C-5.84393478 96.45379517 -5.8472934 95.43273682 -5.85075378 94.3807373 C-5.8602957 90.9868856 -5.8622085 87.59308305 -5.86328125 84.19921875 C-5.86649152 81.85131306 -5.86985541 79.50340758 -5.87336731 77.15550232 C-5.87936666 72.22662899 -5.88120638 67.29777321 -5.88061523 62.36889648 C-5.88051355 56.03877248 -5.89416849 49.70876049 -5.91138744 43.37866306 C-5.92248064 38.52751646 -5.92453527 33.67639717 -5.92400551 28.82523918 C-5.92518958 26.49074861 -5.92963505 24.15625742 -5.93733788 21.82177925 C-5.94708404 18.5628273 -5.94428107 15.30412154 -5.93823242 12.04516602 C-5.94385193 11.07210007 -5.94947144 10.09903412 -5.95526123 9.09648132 C-5.95106674 8.21169098 -5.94687225 7.32690063 -5.94255066 6.41529846 C-5.94309543 5.64413476 -5.94364019 4.87297106 -5.94420147 4.07843876 C-5.43011699 0.18880883 -3.62909848 0.19181282 0 0 Z " fill="#79C3C5" transform="translate(219.6953125,183.8046875)"/>
<path d="M0 0 C0.91007812 0.00902344 1.82015625 0.01804687 2.7578125 0.02734375 C3.80582031 0.04474609 3.80582031 0.04474609 4.875 0.0625 C4.28963247 3.72310821 2.791761 5.60785164 0.3125 8.3125 C-0.32816406 9.01890625 -0.96882813 9.7253125 -1.62890625 10.453125 C-2.12261719 10.98421875 -2.61632812 11.5153125 -3.125 12.0625 C-0.73587066 16.54592995 1.66547805 20.90731884 4.6875 25 C6.875 28.0625 6.875 28.0625 6.875 30.0625 C2.915 30.0625 -1.045 30.0625 -5.125 30.0625 C-5.785 28.0825 -6.445 26.1025 -7.125 24.0625 C-7.785 24.0625 -8.445 24.0625 -9.125 24.0625 C-9.785 22.7425 -10.445 21.4225 -11.125 20.0625 C-11.785 20.3925 -12.445 20.7225 -13.125 21.0625 C-14.3327558 17.43923261 -13.66811128 16.42103631 -12.125 13.0625 C-11.465 13.0625 -10.805 13.0625 -10.125 13.0625 C-10.785 12.4025 -11.445 11.7425 -12.125 11.0625 C-13.445 11.0625 -14.765 11.0625 -16.125 11.0625 C-15.795 9.4125 -15.465 7.7625 -15.125 6.0625 C-14.465 6.7225 -13.805 7.3825 -13.125 8.0625 C-12.50625 7.2375 -11.8875 6.4125 -11.25 5.5625 C-10.54875 4.7375 -9.8475 3.9125 -9.125 3.0625 C-8.465 3.0625 -7.805 3.0625 -7.125 3.0625 C-7.125 2.4025 -7.125 1.7425 -7.125 1.0625 C-4.60024538 -0.19987731 -2.81299534 -0.03606404 0 0 Z " fill="#225B8B" transform="translate(374.125,324.9375)"/>
<path d="M0 0 C0.99 0 1.98 0 3 0 C3 0.66 3 1.32 3 2 C3.94875 2 4.8975 2 5.875 2 C9.45999604 2 12.48853369 2.26074394 16 3 C16.625 4.8125 16.625 4.8125 17 7 C16.34 7.99 15.68 8.98 15 10 C14.2575 9.814375 13.515 9.62875 12.75 9.4375 C10.14174096 8.83521536 10.14174096 8.83521536 8.18994141 9.46655273 C5.47481632 10.12792936 3.00508688 10.11209113 0.2109375 10.09765625 C-0.89507812 10.09443359 -2.00109375 10.09121094 -3.140625 10.08789062 C-4.29046875 10.07951172 -5.4403125 10.07113281 -6.625 10.0625 C-7.78257812 10.05798828 -8.94015625 10.05347656 -10.1328125 10.04882812 C-13.08858527 10.03674261 -16.04426654 10.01907872 -19 10 C-19.66 10 -20.32 10 -21 10 C-21.66 10.66 -22.32 11.32 -23 12 C-25.625 11.625 -25.625 11.625 -28 11 C-28.09765625 4.84765625 -28.09765625 4.84765625 -28 3 C-27 2 -27 2 -24.40795898 1.88647461 C-23.28204346 1.89171143 -22.15612793 1.89694824 -20.99609375 1.90234375 C-19.78115234 1.90556641 -18.56621094 1.90878906 -17.31445312 1.91210938 C-16.03505859 1.92048828 -14.75566406 1.92886719 -13.4375 1.9375 C-12.15423828 1.94201172 -10.87097656 1.94652344 -9.54882812 1.95117188 C-6.36583978 1.96300455 -3.18294238 1.97948932 0 2 C0 1.34 0 0.68 0 0 Z " fill="#496881" transform="translate(247,373)"/>
<path d="M0 0 C0.99 0 1.98 0 3 0 C3 0.66 3 1.32 3 2 C6.34473801 3.11491267 8.60063522 2.80511271 12 2 C13.66666667 2 15.33333333 2 17 2 C17 1.34 17 0.68 17 0 C17.99 0 18.98 0 20 0 C20 3.3 20 6.6 20 10 C13.33333333 10 6.66666667 10 0 10 C-0.33 8.68 -0.66 7.36 -1 6 C-1.66 7.32 -2.32 8.64 -3 10 C-6.31248187 10.02888146 -9.62493167 10.04675799 -12.9375 10.0625 C-13.88302734 10.07087891 -14.82855469 10.07925781 -15.80273438 10.08789062 C-17.15141602 10.09272461 -17.15141602 10.09272461 -18.52734375 10.09765625 C-19.35999756 10.10289307 -20.19265137 10.10812988 -21.05053711 10.11352539 C-23 10 -23 10 -24 9 C-24.125 6 -24.125 6 -24 3 C-23 2 -23 2 -21.00390625 1.90234375 C-20.19824219 1.91394531 -19.39257812 1.92554688 -18.5625 1.9375 C-17.75941406 1.94652344 -16.95632813 1.95554687 -16.12890625 1.96484375 C-15.42636719 1.97644531 -14.72382813 1.98804688 -14 2 C-13.34 2 -12.68 2 -12 2 C-8 2 -4 2 0 2 C0 1.34 0 0.68 0 0 Z M16 5 C17 7 17 7 17 7 Z " fill="#2D4F6F" transform="translate(359,373)"/>
<path d="M0 0 C3.875 0.875 3.875 0.875 5 2 C6.47743029 2.07461769 7.95833242 2.08326834 9.4375 2.0625 C10.33210938 2.05476563 11.22671875 2.04703125 12.1484375 2.0390625 C13.08945312 2.02617187 14.03046875 2.01328125 15 2 C16.85410975 1.97460124 18.70828559 1.95353067 20.5625 1.9375 C21.38878906 1.92589844 22.21507812 1.91429687 23.06640625 1.90234375 C25 2 25 2 26 3 C26.04080783 4.99958364 26.04254356 7.00045254 26 9 C21.27036864 10.022623 16.82744855 10 12 10 C12 9.34 12 8.68 12 8 C11.34 8 10.68 8 10 8 C10 8.66 10 9.32 10 10 C6.51160525 10.09966842 3.39086935 9.84771734 0 9 C-0.33 8.67 -0.66 8.34 -1 8 C-1.33 8.66 -1.66 9.32 -2 10 C-3.32 9.34 -4.64 8.68 -6 8 C-6.33 8.66 -6.66 9.32 -7 10 C-9.97 9.505 -9.97 9.505 -13 9 C-13 8.01 -13 7.02 -13 6 C-13.66 6 -14.32 6 -15 6 C-15 7.32 -15 8.64 -15 10 C-15.99 10 -16.98 10 -18 10 C-18 7.36 -18 4.72 -18 2 C-12.06 2 -6.12 2 0 2 C0 1.34 0 0.68 0 0 Z M19 5 C20 7 20 7 20 7 Z " fill="#274666" transform="translate(284,373)"/>
<path d="M0 0 C3.3 0 6.6 0 10 0 C10.33 6.93 10.66 13.86 11 21 C11.66 21.33 12.32 21.66 13 22 C12.34 22 11.68 22 11 22 C11.33 22.99 11.66 23.98 12 25 C11.34 25.66 10.68 26.32 10 27 C12.475 27.99 12.475 27.99 15 29 C15 29.33 15 29.66 15 30 C7.82836241 30.48621272 7.82836241 30.48621272 4.125 28.3125 C0.64719967 24.52783493 -0.25750097 20.9863289 -0.1953125 15.91796875 C-0.18886719 14.98662109 -0.18242187 14.05527344 -0.17578125 13.09570312 C-0.15902344 12.13599609 -0.14226562 11.17628906 -0.125 10.1875 C-0.11597656 9.20845703 -0.10695312 8.22941406 -0.09765625 7.22070312 C-0.07417326 4.81369652 -0.03830477 2.40681636 0 0 Z " fill="#225480" transform="translate(180,325)"/>
<path d="M0 0 C6.27 0 12.54 0 19 0 C20.85898062 1.85898062 20.12777665 4.94960197 20.12939453 7.43164062 C20.13114685 8.10317673 20.13289917 8.77471283 20.13470459 9.46659851 C20.1391223 11.69650828 20.13618542 13.92633936 20.1328125 16.15625 C20.13348556 17.69942236 20.13445561 19.24259461 20.13571167 20.7857666 C20.13718853 24.0240174 20.13503447 27.26224067 20.13037109 30.50048828 C20.1246738 34.66042523 20.12795287 38.82029766 20.13394356 42.98023224 C20.13754949 46.16799408 20.13641044 49.35574051 20.13381577 52.54350281 C20.13314658 54.07777412 20.13397461 55.61204682 20.13629532 57.14631653 C20.13882238 59.28703541 20.13498054 61.42764842 20.12939453 63.56835938 C20.12859894 64.78890015 20.12780334 66.00944092 20.12698364 67.26696777 C20 70 20 70 19 71 C12.73 71 6.46 71 0 71 C0 47.57 0 24.14 0 0 Z M1 1 C1 23.77 1 46.54 1 70 C6.28 70 11.56 70 17 70 C18.30362595 68.92120693 18.30362595 68.92120693 18.12025452 66.33616638 C18.11803391 65.14813919 18.11581329 63.960112 18.11352539 62.73608398 C18.11367142 62.08244873 18.11381744 61.42881348 18.1139679 60.75537109 C18.11326883 58.58557872 18.10547678 56.41587121 18.09765625 54.24609375 C18.09579205 52.74536689 18.09436816 51.24463943 18.09336853 49.74391174 C18.08954352 45.78681774 18.0797134 41.82976022 18.06866455 37.87268066 C18.05845006 33.83765151 18.05387083 29.80261647 18.04882812 25.76757812 C18.03809111 17.84503531 18.0210149 9.92252219 18 2 C12.92281793 -0.53859104 6.67646212 1 1 1 Z " fill="#65C5C6" transform="translate(182,221)"/>
<path d="M0 0 C0 34.98 0 69.96 0 106 C-5.28 106 -10.56 106 -16 106 C-17 105 -17 105 -17.12304783 103.25274563 C-17.12212604 102.48673566 -17.12120424 101.72072569 -17.12025452 100.9315033 C-17.12162918 100.05505661 -17.12300385 99.17860992 -17.12442017 98.27560425 C-17.12082489 97.30672272 -17.11722961 96.33784119 -17.11352539 95.33959961 C-17.11367142 94.32508224 -17.11381744 93.31056488 -17.1139679 92.26530457 C-17.11326829 88.89429627 -17.10547368 85.52334246 -17.09765625 82.15234375 C-17.09579224 79.82206757 -17.09436826 77.491791 -17.09336853 75.16151428 C-17.08954202 69.01462735 -17.0797106 62.86776387 -17.06866455 56.72088623 C-17.05845329 50.45390134 -17.05387152 44.18691268 -17.04882812 37.91992188 C-17.03808845 25.61327092 -17.02101044 13.30663741 -17 1 C-14.3541898 0.832959 -11.70835369 0.66634934 -9.0625 0.5 C-8.30775391 0.45230469 -7.55300781 0.40460938 -6.77539062 0.35546875 C-1.11328125 0 -1.11328125 0 0 0 Z M-16 2 C-16.04626236 15.13420813 -16.08183809 28.26839701 -16.10362434 41.40266991 C-16.11407861 47.50089767 -16.12826772 53.59906986 -16.15087891 59.69726562 C-16.17254877 65.57813694 -16.18455623 71.45895467 -16.18975449 77.33986282 C-16.1934608 79.58783436 -16.20069788 81.83580285 -16.21146011 84.08375168 C-16.2258972 87.22305479 -16.22798121 90.36213409 -16.22705078 93.50146484 C-16.23424133 94.43869888 -16.24143188 95.37593292 -16.24884033 96.34156799 C-16.246091 97.19414688 -16.24334167 98.04672577 -16.24050903 98.92514038 C-16.24235262 99.66810553 -16.24419621 100.41107067 -16.24609566 101.17654991 C-16.15379408 103.25032512 -16.15379408 103.25032512 -14 105 C-10.87185486 105.24360073 -10.87185486 105.24360073 -7.375 105.125 C-6.18648437 105.10695313 -4.99796875 105.08890625 -3.7734375 105.0703125 C-2.85820312 105.04710937 -1.94296875 105.02390625 -1 105 C-0.97685815 92.01343507 -0.95907547 79.02687502 -0.94818783 66.04029369 C-0.94296305 60.01049765 -0.93587271 53.98071568 -0.92456055 47.95092773 C-0.91371734 42.13489455 -0.9077201 36.31887493 -0.90512276 30.50283241 C-0.90327111 28.28081359 -0.89965544 26.05879553 -0.89426994 23.83678246 C-0.88704055 20.73125971 -0.88600987 17.62579344 -0.88647461 14.52026367 C-0.88287933 13.59597565 -0.87928406 12.67168762 -0.87557983 11.71939087 C-0.87764183 10.45108177 -0.87764183 10.45108177 -0.87974548 9.15715027 C-0.87882369 8.42248126 -0.8779019 7.68781225 -0.87695217 6.93088055 C-0.93154594 4.77993896 -0.93154594 4.77993896 -2 2 C-6.62 2 -11.24 2 -16 2 Z " fill="#1CA5A7" transform="translate(233,185)"/>
<path d="M0 0 C9.94544037 -0.77162899 9.94544037 -0.77162899 13.5625 1.875 C15.50468462 6.09714048 16.56262441 10.36896436 17 15 C15.45461688 16.54538312 13.99828899 16.12967467 11.8515625 16.1328125 C11.01109375 16.13410156 10.170625 16.13539063 9.3046875 16.13671875 C7.97824219 16.13091797 7.97824219 16.13091797 6.625 16.125 C5.31015625 16.13080078 5.31015625 16.13080078 3.96875 16.13671875 C3.12570313 16.13542969 2.28265625 16.13414062 1.4140625 16.1328125 C0.6401416 16.13168457 -0.1337793 16.13055664 -0.93115234 16.12939453 C-3 16 -3 16 -6 15 C-6.33 14.01 -6.66 13.02 -7 12 C-6.34 12 -5.68 12 -5 12 C-5 11.34 -5 10.68 -5 10 C-1.04 10 2.92 10 7 10 C7 8.68 7 7.36 7 6 C6.38511719 5.93941406 5.77023438 5.87882812 5.13671875 5.81640625 C3.92435547 5.69072266 3.92435547 5.69072266 2.6875 5.5625 C1.88699219 5.48128906 1.08648437 5.40007812 0.26171875 5.31640625 C-2 5 -2 5 -5 4 C-4.34 3.34 -3.68 2.68 -3 2 C-2.34 2 -1.68 2 -1 2 C-0.67 1.34 -0.34 0.68 0 0 Z " fill="#16446F" transform="translate(227,327)"/>
<path d="M0 0 C5.61 0 11.22 0 17 0 C17 0.33 17 0.66 17 1 C11.72 1 6.44 1 1 1 C1.33 56.77 1.66 112.54 2 170 C6.95 170 11.9 170 17 170 C17.495 170.99 17.495 170.99 18 172 C11.73 172 5.46 172 -1 172 C-0.67 115.24 -0.34 58.48 0 0 Z " fill="#23A5A4" transform="translate(280,120)"/>
<path d="M0 0 C1.134375 0.020625 2.26875 0.04125 3.4375 0.0625 C3.4375 0.7225 3.4375 1.3825 3.4375 2.0625 C4.38625 2.0625 5.335 2.0625 6.3125 2.0625 C12.02083333 2.0625 17.72916667 2.0625 23.4375 2.0625 C23.4375 4.7025 23.4375 7.3425 23.4375 10.0625 C14.4375 10.0625 5.4375 10.0625 -3.5625 10.0625 C-3.75662181 8.58418779 -3.94262131 7.10480684 -4.125 5.625 C-4.22941406 4.80128906 -4.33382812 3.97757812 -4.44140625 3.12890625 C-4.48136719 2.44699219 -4.52132812 1.76507813 -4.5625 1.0625 C-3.5625 0.0625 -3.5625 0.0625 0 0 Z M7.4375 6.0625 C8.4375 8.0625 8.4375 8.0625 8.4375 8.0625 Z " fill="#30556E" transform="translate(138.5625,372.9375)"/>
<path d="M0 0 C3.63373482 1.91249201 5.53194188 3.14095948 7 7 C7.22705078 9.56542969 7.22705078 9.56542969 7.1953125 12.421875 C7.18564453 13.95908203 7.18564453 13.95908203 7.17578125 15.52734375 C7.15902344 16.59082031 7.14226562 17.65429688 7.125 18.75 C7.11597656 19.82894531 7.10695313 20.90789062 7.09765625 22.01953125 C7.07411305 24.67991278 7.04122799 27.33984336 7 30 C4.03 30 1.06 30 -2 30 C-1.34 29.67 -0.68 29.34 0 29 C-0.33 28.01 -0.66 27.02 -1 26 C-1.08143855 24.37280518 -1.1075302 22.74248281 -1.09765625 21.11328125 C-1.09443359 20.17548828 -1.09121094 19.23769531 -1.08789062 18.27148438 C-1.07532227 16.80678711 -1.07532227 16.80678711 -1.0625 15.3125 C-1.05798828 14.32443359 -1.05347656 13.33636719 -1.04882812 12.31835938 C-1.03704303 9.87884526 -1.02059011 7.43945311 -1 5 C0.32 4.67 1.64 4.34 3 4 C2.01 3.34 1.02 2.68 0 2 C0 1.34 0 0.68 0 0 Z " fill="#0F497B" transform="translate(286,325)"/>
<path d="M0 0 C-0.33 1.32 -0.66 2.64 -1 4 C-2.65 4 -4.3 4 -6 4 C-5.2236068 7.0745356 -5.2236068 7.0745356 -3 9 C-2.85492305 11.74485593 -2.81347577 14.38480543 -2.875 17.125 C-2.88402344 17.87910156 -2.89304687 18.63320313 -2.90234375 19.41015625 C-2.9259313 21.27357254 -2.96180281 23.13682593 -3 25 C-2.195625 25.12375 -1.39125 25.2475 -0.5625 25.375 C0.7059375 25.684375 0.7059375 25.684375 2 26 C2.33 26.66 2.66 27.32 3 28 C3 22.06 3 16.12 3 10 C3.33 10 3.66 10 4 10 C4 16.27 4 22.54 4 29 C-3.71484375 29.09765625 -3.71484375 29.09765625 -6 29 C-7 28 -7 28 -7.11352539 26.05053711 C-7.10828857 25.2178833 -7.10305176 24.38522949 -7.09765625 23.52734375 C-7.09443359 22.62822266 -7.09121094 21.72910156 -7.08789062 20.80273438 C-7.07951172 19.85720703 -7.07113281 18.91167969 -7.0625 17.9375 C-7.05573242 16.5134082 -7.05573242 16.5134082 -7.04882812 15.06054688 C-7.0370011 12.70696935 -7.02052025 10.35351523 -7 8 C-9.64 8.33 -12.28 8.66 -15 9 C-15 8.01 -15 7.02 -15 6 C-14.360625 5.896875 -13.72125 5.79375 -13.0625 5.6875 C-12.381875 5.460625 -11.70125 5.23375 -11 5 C-10.67 4.01 -10.34 3.02 -10 2 C-11.98 2 -13.96 2 -16 2 C-15.67 1.01 -15.34 0.02 -15 -1 C-10.22720437 -3.01925969 -4.35840822 -2.78938126 0 0 Z " fill="#4B7293" transform="translate(271,326)"/>
<path d="M0 0 C1.134375 0.020625 2.26875 0.04125 3.4375 0.0625 C3.7675 0.7225 4.0975 1.3825 4.4375 2.0625 C5.13617188 2.0625 5.83484375 2.0625 6.5546875 2.0625 C11.515625 2.0625 16.4765625 2.0625 21.4375 2.0625 C22.0625 4.9375 22.0625 4.9375 22.4375 8.0625 C20.4375 10.0625 20.4375 10.0625 18.125 10.328125 C17.238125 10.32296875 16.35125 10.3178125 15.4375 10.3125 C14.1071875 10.32023437 14.1071875 10.32023437 12.75 10.328125 C10.4375 10.0625 10.4375 10.0625 8.4375 8.0625 C7.9425 8.3925 7.4475 8.7225 6.9375 9.0625 C3.34659106 10.49886358 0.29293873 10.19101462 -3.5625 10.0625 C-3.75662181 8.58418779 -3.94262131 7.10480684 -4.125 5.625 C-4.22941406 4.80128906 -4.33382812 3.97757812 -4.44140625 3.12890625 C-4.48136719 2.44699219 -4.52132812 1.76507813 -4.5625 1.0625 C-3.5625 0.0625 -3.5625 0.0625 0 0 Z " fill="#507087" transform="translate(166.5625,372.9375)"/>
<path d="M0 0 C2.34250464 2.05683334 3.52771967 3.35261508 4.5625 6.25 C2.2525 5.92 -0.0575 5.59 -2.4375 5.25 C-2.7675 7.23 -3.0975 9.21 -3.4375 11.25 C-7.0675 11.25 -10.6975 11.25 -14.4375 11.25 C-14.4375 10.92 -14.4375 10.59 -14.4375 10.25 C-9.9825 9.755 -9.9825 9.755 -5.4375 9.25 C-5.4375 8.59 -5.4375 7.93 -5.4375 7.25 C-9.3975 7.91 -13.3575 8.57 -17.4375 9.25 C-20.4375 5.25 -20.4375 5.25 -20.5625 3.1875 C-19.08316347 0.63975376 -17.24992676 -0.19805084 -14.53515625 -1.20703125 C-9.17826696 -2.5936376 -4.95356629 -2.52181556 0 0 Z " fill="#164D80" transform="translate(318.4375,325.75)"/>
<path d="M0 0 C2.5625 1.5 2.5625 1.5 4 3 C-2.625 4.125 -2.625 4.125 -6 3 C-6.33 3.99 -6.66 4.98 -7 6 C-7.33 6.33 -7.66 6.66 -8 7 C-6.35 7 -4.7 7 -3 7 C-5 8.33333333 -7 9.66666667 -9 11 C-6.03 11.33 -3.06 11.66 0 12 C-0.33 11.01 -0.66 10.02 -1 9 C-0.34 9 0.32 9 1 9 C1 10.32 1 11.64 1 13 C-2.96 13 -6.92 13 -11 13 C-11.33 14.65 -11.66 16.3 -12 18 C-11.01 18.33 -10.02 18.66 -9 19 C-10.32 19 -11.64 19 -13 19 C-13.66 19.66 -14.32 20.32 -15 21 C-15.99 20.01 -16.98 19.02 -18 18 C-17.505 17.236875 -17.01 16.47375 -16.5 15.6875 C-14.75631692 13.07636249 -14.75631692 13.07636249 -15 10 C-15.99 9.67 -16.98 9.34 -18 9 C-17.62020398 6.53132589 -17.28665672 5.27788151 -15.46875 3.515625 C-10.34510669 0.2218543 -6.09295873 -1.14916314 0 0 Z " fill="#0E4B83" transform="translate(233,324)"/>
<path d="M0 0 C1.4540625 0.0309375 1.4540625 0.0309375 2.9375 0.0625 C2.9375 3.3625 2.9375 6.6625 2.9375 10.0625 C0.6275 10.0625 -1.6825 10.0625 -4.0625 10.0625 C-4.0625 9.0725 -4.0625 8.0825 -4.0625 7.0625 C-7.0325 6.5675 -7.0325 6.5675 -10.0625 6.0625 C-10.3925 4.7425 -10.7225 3.4225 -11.0625 2.0625 C-12.3825 2.0625 -13.7025 2.0625 -15.0625 2.0625 C-14.7325 11.3025 -14.4025 20.5425 -14.0625 30.0625 C-15.0525 30.0625 -16.0425 30.0625 -17.0625 30.0625 C-17.0625 20.4925 -17.0625 10.9225 -17.0625 1.0625 C-12.72916667 1.0625 -8.39583333 1.0625 -4.0625 1.0625 C-3.0625 0.0625 -3.0625 0.0625 0 0 Z " fill="#507E99" transform="translate(175.0625,323.9375)"/>
<path d="M0 0 C0 0.66 0 1.32 0 2 C-1.32 1.67 -2.64 1.34 -4 1 C-3.979375 1.804375 -3.95875 2.60875 -3.9375 3.4375 C-4 6 -4 6 -5 7 C-5.04613201 8.49929044 -5.03796252 10.00048046 -5 11.5 C-4.96203748 12.99951954 -4.95386799 14.50070956 -5 16 C-5.33 16.33 -5.66 16.66 -6 17 C-5.93529921 19.27335057 -5.79782127 21.54480473 -5.625 23.8125 C-5.53476562 25.05644531 -5.44453125 26.30039062 -5.3515625 27.58203125 C-5.08347655 30.18842245 -4.74259813 32.50159783 -4 35 C-3.34 35 -2.68 35 -2 35 C-2 33.68 -2 32.36 -2 31 C-0.35 30.67 1.3 30.34 3 30 C2.67 32.97 2.34 35.94 2 39 C-1.3 39 -4.6 39 -8 39 C-8.07403712 33.76728431 -8.12854783 28.53487199 -8.16479492 23.30175781 C-8.17990173 21.52077933 -8.20038835 19.73983816 -8.22631836 17.95898438 C-8.26261943 15.40225022 -8.27970688 12.8460069 -8.29296875 10.2890625 C-8.30845261 9.49005524 -8.32393646 8.69104797 -8.33988953 7.86782837 C-8.34057617 5.62353516 -8.34057617 5.62353516 -8 2 C-4.77208445 -0.1519437 -3.71599191 -0.20086443 0 0 Z " fill="#204D76" transform="translate(358,316)"/>
<path d="M0 0 C2.81256281 -0.02684312 5.62487241 -0.04676188 8.4375 -0.0625 C9.23994141 -0.07087891 10.04238281 -0.07925781 10.86914062 -0.08789062 C12.91295221 -0.0965143 14.95683902 -0.0522815 17 0 C18 1 18 1 18.0625 4.0625 C18.041875 5.031875 18.02125 6.00125 18 7 C16.35 7.33 14.7 7.66 13 8 C12.01 6.68 11.02 5.36 10 4 C9.67 5.32 9.34 6.64 9 8 C7.54257537 8.08096803 6.08387193 8.13917774 4.625 8.1875 C3.81289063 8.22230469 3.00078125 8.25710938 2.1640625 8.29296875 C1.44992187 8.19628906 0.73578125 8.09960938 0 8 C-0.66 7.01 -1.32 6.02 -2 5 C-1.125 2.3125 -1.125 2.3125 0 0 Z " fill="#1B395D" transform="translate(314,375)"/>
<path d="M0 0 C5.71428571 0.71428571 5.71428571 0.71428571 7 2 C7.1245486 3.64230364 7.17568524 5.29052276 7.1875 6.9375 C7.20167969 7.83339844 7.21585937 8.72929687 7.23046875 9.65234375 C7 12 7 12 5 14 C5 13.34 5 12.68 5 12 C4.34 12 3.68 12 3 12 C3 12.66 3 13.32 3 14 C2.01 14.33 1.02 14.66 0 15 C-0.66 14.34 -1.32 13.68 -2 13 C-3.98821313 12.60235737 -5.98944339 12.26224651 -8 12 C-7.67 11.01 -7.34 10.02 -7 9 C-8.65 9 -10.3 9 -12 9 C-12 8.34 -12 7.68 -12 7 C-8.37 7 -4.74 7 -1 7 C-1.020625 6.030625 -1.04125 5.06125 -1.0625 4.0625 C-1 1 -1 1 0 0 Z " fill="#0E4472" transform="translate(316,330)"/>
<path d="M0 0 C1.39456452 0.00667256 2.78911118 0.01863093 4.18359375 0.03515625 C4.89451172 0.03966797 5.60542969 0.04417969 6.33789062 0.04882812 C8.09899388 0.06064761 9.86005411 0.07858362 11.62109375 0.09765625 C11.62109375 2.40765625 11.62109375 4.71765625 11.62109375 7.09765625 C8.62109375 8.09765625 8.62109375 8.09765625 6.12109375 7.47265625 C5.29609375 7.34890625 4.47109375 7.22515625 3.62109375 7.09765625 C3.12609375 7.59265625 2.63109375 8.08765625 2.12109375 8.59765625 C1.62609375 9.09265625 1.13109375 9.58765625 0.62109375 10.09765625 C-2.06640625 9.78515625 -2.06640625 9.78515625 -4.37890625 9.09765625 C-4.4765625 2.9453125 -4.4765625 2.9453125 -4.37890625 1.09765625 C-3.37890625 0.09765625 -3.37890625 0.09765625 0 0 Z " fill="#375670" transform="translate(223.37890625,374.90234375)"/>
<path d="M0 0 C3 1.8125 3 1.8125 6 4 C6 4.99 6 5.98 6 7 C4.3203125 8.421875 4.3203125 8.421875 2.125 9.75 C1.40570313 10.19859375 0.68640625 10.6471875 -0.0546875 11.109375 C-0.69664062 11.40328125 -1.33859375 11.6971875 -2 12 C-2.66 11.67 -3.32 11.34 -4 11 C-5.53668865 10.77532169 -7.07968054 10.59203195 -8.625 10.4375 C-9.44226563 10.35371094 -10.25953125 10.26992188 -11.1015625 10.18359375 C-11.72804687 10.12300781 -12.35453125 10.06242187 -13 10 C-13.33 8.68 -13.66 7.36 -14 6 C-10.85817933 4.13818034 -8.63047723 3.80375799 -5 4 C-3.64082319 4.11602431 -3.64082319 4.11602431 -1.9375 2 C-1.298125 1.34 -0.65875 0.68 0 0 Z " fill="#154B7A" transform="translate(236,344)"/>
<path d="M0 0 C2.29160319 -0.02692484 4.58329546 -0.04636124 6.875 -0.0625 C8.15117187 -0.07410156 9.42734375 -0.08570313 10.7421875 -0.09765625 C14 0 14 0 16 1 C17.26229508 5.47540984 17.26229508 5.47540984 16 8 C14.68 7.34 13.36 6.68 12 6 C11.67 6.66 11.34 7.32 11 8 C8.03 7.505 8.03 7.505 5 7 C5 6.01 5 5.02 5 4 C4.34 4 3.68 4 3 4 C3 5.32 3 6.64 3 8 C2.01 8 1.02 8 0 8 C0 5.36 0 2.72 0 0 Z " fill="#294B66" transform="translate(266,375)"/>
<path d="M0 0 C2.97 0 5.94 0 9 0 C9 9.9 9 19.8 9 30 C6.36 29.34 3.72 28.68 1 28 C2.375 26.5 2.375 26.5 4 25 C4.66 25 5.32 25 6 25 C6.06058594 23.75863281 6.12117187 22.51726562 6.18359375 21.23828125 C6.26803623 19.59634423 6.35268236 17.95441768 6.4375 16.3125 C6.49647461 15.08756836 6.49647461 15.08756836 6.55664062 13.83789062 C6.76898003 9.80344189 7.04447922 5.94252691 8 2 C5.69 2 3.38 2 1 2 C1 8.27 1 14.54 1 21 C0.67 21 0.34 21 0 21 C0 14.07 0 7.14 0 0 Z " fill="#1E4668" transform="translate(200,325)"/>
<path d="M0 0 C-0.99 0.495 -0.99 0.495 -2 1 C-2 1.66 -2 2.32 -2 3 C-1.34 3.66 -0.68 4.32 0 5 C-4.27343092 5.36629408 -6.48812804 4.40814077 -10 2 C-10.66 3.65 -11.32 5.3 -12 7 C-11.34 7.33 -10.68 7.66 -10 8 C-10.66 8 -11.32 8 -12 8 C-9.94766315 10.2477975 -8.99332739 11.0022242 -6 12 C-6 12.66 -6 13.32 -6 14 C-6.99 14 -7.98 14 -9 14 C-9 14.66 -9 15.32 -9 16 C-7.35 16 -5.7 16 -4 16 C-4 16.33 -4 16.66 -4 17 C-7.9354597 17.45761159 -9.57244809 17.29742742 -12.875 15 C-15.23938726 11.66204152 -15.77230017 9.94067968 -15.46875 5.94140625 C-13.43979305 -2.46185711 -6.75222645 -1.32422305 0 0 Z " fill="#2D5D85" transform="translate(311,338)"/>
<path d="M0 0 C0.80566406 0.01160156 1.61132812 0.02320313 2.44140625 0.03515625 C3.24449219 0.04417969 4.04757812 0.05320312 4.875 0.0625 C5.57753906 0.07410156 6.28007812 0.08570313 7.00390625 0.09765625 C7.66390625 0.09765625 8.32390625 0.09765625 9.00390625 0.09765625 C10.67057292 0.09765625 12.33723958 0.09765625 14.00390625 0.09765625 C13.01390625 0.75765625 12.02390625 1.41765625 11.00390625 2.09765625 C11.00390625 2.75765625 11.00390625 3.41765625 11.00390625 4.09765625 C11.66390625 4.09765625 12.32390625 4.09765625 13.00390625 4.09765625 C13.00390625 5.41765625 13.00390625 6.73765625 13.00390625 8.09765625 C10.52466824 8.1245072 8.04571785 8.14442172 5.56640625 8.16015625 C4.85935547 8.16853516 4.15230469 8.17691406 3.42382812 8.18554688 C1.61697066 8.19419213 -0.18996978 8.14985636 -1.99609375 8.09765625 C-2.99609375 7.09765625 -2.99609375 7.09765625 -3.12109375 4.09765625 C-2.95638462 0.14463721 -2.95638462 0.14463721 0 0 Z " fill="#4F6784" transform="translate(337.99609375,374.90234375)"/>
<path d="M0 0 C5 0 10 0 15 0 C15 2.64 15 5.28 15 8 C10 8 5 8 0 8 C0.185625 7.236875 0.37125 6.47375 0.5625 5.6875 C1.22819173 2.91032625 1.22819173 2.91032625 0 0 Z " fill="#324F67" transform="translate(147,375)"/>
<path d="M0 0 C1 1 1 1 1.09765625 3.06640625 C1.08605469 3.89011719 1.07445312 4.71382813 1.0625 5.5625 C1.05347656 6.38878906 1.04445313 7.21507812 1.03515625 8.06640625 C1.02355469 8.70449219 1.01195312 9.34257812 1 10 C-0.670625 10.2165625 -0.670625 10.2165625 -2.375 10.4375 C-5.82142047 10.78372035 -5.82142047 10.78372035 -8 12 C-10.42857143 4.57142857 -10.42857143 4.57142857 -9 1 C-5.92954549 0.0902357 -3.20049657 -0.17299981 0 0 Z " fill="#4F7C9D" transform="translate(347,324)"/>
<path d="M0 0 C1.65322266 0.01740234 1.65322266 0.01740234 3.33984375 0.03515625 C4.99693359 0.04869141 4.99693359 0.04869141 6.6875 0.0625 C7.54214844 0.07410156 8.39679688 0.08570313 9.27734375 0.09765625 C9.60734375 2.40765625 9.93734375 4.71765625 10.27734375 7.09765625 C6.2806099 8.42990087 2.44439872 8.23207738 -1.72265625 8.09765625 C-2.38265625 7.76765625 -3.04265625 7.43765625 -3.72265625 7.09765625 C-3.76519981 5.09810879 -3.76346408 3.09723989 -3.72265625 1.09765625 C-2.72265625 0.09765625 -2.72265625 0.09765625 0 0 Z M-0.72265625 3.09765625 C0.27734375 5.09765625 0.27734375 5.09765625 0.27734375 5.09765625 Z " fill="#5E7A91" transform="translate(195.72265625,374.90234375)"/>
<path d="M0 0 C0.33 0.66 0.66 1.32 1 2 C1.66 2 2.32 2 3 2 C3 6.95 3 11.9 3 17 C1.35 17.33 -0.3 17.66 -2 18 C-3 17 -3 17 -3.09765625 13.83984375 C-3.08025391 11.90818359 -3.08025391 11.90818359 -3.0625 9.9375 C-3.05347656 8.64714844 -3.04445312 7.35679687 -3.03515625 6.02734375 C-3.02355469 5.02832031 -3.01195312 4.02929688 -3 3 C-2.01 2.67 -1.02 2.34 0 2 C0 1.34 0 0.68 0 0 Z " fill="#104B7F" transform="translate(142,335)"/>
<path d="M0 0 C3.25548753 3.02295271 5.68977058 6.20462309 8 10 C8 10.66 8 11.32 8 12 C4.04 12 0.08 12 -4 12 C-4.66 10.02 -5.32 8.04 -6 6 C-6.66 6 -7.32 6 -8 6 C-7.67 5.34 -7.34 4.68 -7 4 C-4.525 4.99 -4.525 4.99 -2 6 C-1.34 4.02 -0.68 2.04 0 0 Z " fill="#2B5882" transform="translate(373,343)"/>
<path d="M0 0 C0.91007812 0.00902344 1.82015625 0.01804687 2.7578125 0.02734375 C3.45648438 0.03894531 4.15515625 0.05054688 4.875 0.0625 C4.28963247 3.72310821 2.791761 5.60785164 0.3125 8.3125 C-0.32816406 9.01890625 -0.96882813 9.7253125 -1.62890625 10.453125 C-2.36947266 11.24976563 -2.36947266 11.24976563 -3.125 12.0625 C-5.84256906 10.70371547 -6.8396773 8.89252969 -7.8125 6.0625 C-8.125 4.0625 -8.125 4.0625 -7.125 1.0625 C-4.60024538 -0.19987731 -2.81299534 -0.03606404 0 0 Z " fill="#2F557A" transform="translate(374.125,324.9375)"/>
<path d="M0 0 C3.3 0 6.6 0 10 0 C10 0.99 10 1.98 10 3 C10.66 3 11.32 3 12 3 C12.33 5.31 12.66 7.62 13 10 C11.68 10.33 10.36 10.66 9 11 C9 10.01 9 9.02 9 8 C8.01 9.485 8.01 9.485 7 11 C7 9.35 7 7.7 7 6 C6.38511719 5.93941406 5.77023438 5.87882812 5.13671875 5.81640625 C3.92435547 5.69072266 3.92435547 5.69072266 2.6875 5.5625 C1.88699219 5.48128906 1.08648437 5.40007812 0.26171875 5.31640625 C-2 5 -2 5 -5 4 C-4.34 3.34 -3.68 2.68 -3 2 C-2.34 2 -1.68 2 -1 2 C-0.67 1.34 -0.34 0.68 0 0 Z " fill="#0F4979" transform="translate(227,327)"/>
<path d="M0 0 C1.2684375 0.0309375 1.2684375 0.0309375 2.5625 0.0625 C3.2225 0.0625 3.8825 0.0625 4.5625 0.0625 C6.23215451 0.38052943 7.89928518 0.71234951 9.5625 1.0625 C10.1875 2.875 10.1875 2.875 10.5625 5.0625 C9.5725 6.5475 9.5725 6.5475 8.5625 8.0625 C7.840625 7.876875 7.11875 7.69125 6.375 7.5 C3.42267948 7.04075014 1.44949336 7.43828522 -1.4375 8.0625 C-2.0975 7.7325 -2.7575 7.4025 -3.4375 7.0625 C-3.48004356 5.06295254 -3.47830783 3.06208364 -3.4375 1.0625 C-2.4375 0.0625 -2.4375 0.0625 0 0 Z " fill="#43637E" transform="translate(253.4375,374.9375)"/>
<path d="M0 0 C0.33 0 0.66 0 1 0 C1.74515899 3.38636309 2.16770563 6.61943103 2.31640625 10.08203125 C2.35830078 11.01337891 2.40019531 11.94472656 2.44335938 12.90429688 C2.48267578 13.86400391 2.52199219 14.82371094 2.5625 15.8125 C2.62727539 17.28106445 2.62727539 17.28106445 2.69335938 18.77929688 C2.7990226 21.18607027 2.90112327 23.59293983 3 26 C4.65 25.67 6.3 25.34 8 25 C8.33 19.72 8.66 14.44 9 9 C9.33 9 9.66 9 10 9 C10 15.27 10 21.54 10 28 C6.7 28 3.4 28 0 28 C0 18.76 0 9.52 0 0 Z " fill="#7594B0" transform="translate(246,327)"/>
<path d="M0 0 C4.77003402 -0.38160272 8.09465992 -0.4609004 12.4375 1.75 C14.78000464 3.80683334 15.96521967 5.10261508 17 8 C14.69 7.67 12.38 7.34 10 7 C9.67 8.98 9.34 10.96 9 13 C5.37 13 1.74 13 -2 13 C-2 12.67 -2 12.34 -2 12 C2.455 11.505 2.455 11.505 7 11 C7 10.34 7 9.68 7 9 C5.68 8.67 4.36 8.34 3 8 C4.32 8 5.64 8 7 8 C7 6.35 7 4.7 7 3 C4.69 2.67 2.38 2.34 0 2 C0 1.34 0 0.68 0 0 Z " fill="#47799D" transform="translate(306,324)"/>
<path d="M0 0 C0.33 0 0.66 0 1 0 C1.33 13.86 1.66 27.72 2 42 C6.95 42 11.9 42 17 42 C17.33 42.66 17.66 43.32 18 44 C11.73 44 5.46 44 -1 44 C-0.67 29.48 -0.34 14.96 0 0 Z " fill="#33AAAB" transform="translate(280,248)"/>
<path d="M0 0 C0 0.66 0 1.32 0 2 C-1.32 1.67 -2.64 1.34 -4 1 C-3.979375 1.804375 -3.95875 2.60875 -3.9375 3.4375 C-4 6 -4 6 -5 7 C-5.07179964 8.51928038 -5.08392007 10.04167482 -5.0625 11.5625 C-5.05347656 12.38878906 -5.04445313 13.21507812 -5.03515625 14.06640625 C-5.02355469 14.70449219 -5.01195312 15.34257812 -5 16 C-5.66 16 -6.32 16 -7 16 C-7 23.59 -7 31.18 -7 39 C-7.33 39 -7.66 39 -8 39 C-8.07403712 33.76728431 -8.12854783 28.53487199 -8.16479492 23.30175781 C-8.17990173 21.52077933 -8.20038835 19.73983816 -8.22631836 17.95898438 C-8.26261943 15.40225022 -8.27970688 12.8460069 -8.29296875 10.2890625 C-8.30845261 9.49005524 -8.32393646 8.69104797 -8.33988953 7.86782837 C-8.34057617 5.62353516 -8.34057617 5.62353516 -8 2 C-4.77208445 -0.1519437 -3.71599191 -0.20086443 0 0 Z " fill="#437093" transform="translate(358,316)"/>
<path d="M0 0 C0.66 0 1.32 0 2 0 C2 0.66 2 1.32 2 2 C4.31 2 6.62 2 9 2 C8.25 8.625 8.25 8.625 6 12 C3.83125748 11.49396008 2.00032373 11.00016187 0 10 C0 6.7 0 3.4 0 0 Z M2 5 C2 6.32 2 7.64 2 9 C2.66 9 3.32 9 4 9 C3.34 7.68 2.68 6.36 2 5 Z " fill="#40617B" transform="translate(207,373)"/>
<path d="M0 0 C0.99 0.66 1.98 1.32 3 2 C4.175625 2.144375 5.35125 2.28875 6.5625 2.4375 C8.2640625 2.7159375 8.2640625 2.7159375 10 3 C10.99 4.485 10.99 4.485 12 6 C10.9275 5.814375 9.855 5.62875 8.75 5.4375 C4.73192393 4.93676362 4.73192393 4.93676362 1 6 C0.67 6.66 0.34 7.32 0 8 C3.3 8.66 6.6 9.32 10 10 C10 10.33 10 10.66 10 11 C3.30713088 11.47617251 -0.77531236 11.39973696 -6 7 C-5.67 6.01 -5.34 5.02 -5 4 C-4.01 3.67 -3.02 3.34 -2 3 C-1.34 3.33 -0.68 3.66 0 4 C0 2.68 0 1.36 0 0 Z " fill="#346086" transform="translate(222,344)"/>
<path d="M0 0 C1.98 0 3.96 0 6 0 C6 0.66 6 1.32 6 2 C7.32 2.66 8.64 3.32 10 4 C8.68 4.33 7.36 4.66 6 5 C5.67 11.93 5.34 18.86 5 26 C5.66 26.33 6.32 26.66 7 27 C6.01 27.99 5.02 28.98 4 30 C2.81873132 27.63746265 2.92554417 26.33644142 3.0078125 23.7109375 C3.02457031 22.85113281 3.04132813 21.99132812 3.05859375 21.10546875 C3.1023 19.30837048 3.15416545 17.51144904 3.21484375 15.71484375 C3.31252856 9.73830956 2.43520002 5.46963774 0 0 Z " fill="#174772" transform="translate(280,325)"/>
<path d="M0 0 C3.3 0 6.6 0 10 0 C10 2.31 10 4.62 10 7 C6.62537285 6.45276317 4.91765 5.9451 2 4 C1.67 9.61 1.34 15.22 1 21 C0.67 21 0.34 21 0 21 C0 14.07 0 7.14 0 0 Z " fill="#48698A" transform="translate(180,325)"/>
<path d="M0 0 C-1.98 0.99 -1.98 0.99 -4 2 C-3.50886719 2.93972656 -3.01773437 3.87945312 -2.51171875 4.84765625 C-0.4493769 9.65978722 -0.66774477 14.28198672 -0.8125 19.4375 C-0.82603516 20.35982422 -0.83957031 21.28214844 -0.85351562 22.23242188 C-0.88859047 24.48890383 -0.93773613 26.74413226 -1 29 C-1.33 29 -1.66 29 -2 29 C-2.33 23.06 -2.66 17.12 -3 11 C-3.66 10.67 -4.32 10.34 -5 10 C-5 8.35 -5 6.7 -5 5 C-8.32534757 3.89155081 -10.62182575 4.15545644 -14 5 C-8.84290377 0.79289518 -6.71792803 -0.12440607 0 0 Z " fill="#4C789E" transform="translate(285,324)"/>
<path d="M0 0 C0.99 0 1.98 0 3 0 C3 1.65 3 3.3 3 5 C1.35 4.67 -0.3 4.34 -2 4 C-2 5.65 -2 7.3 -2 9 C-5.32534757 10.10844919 -7.62182575 9.84454356 -11 9 C-10.01 8.67 -9.02 8.34 -8 8 C-8 7.34 -8 6.68 -8 6 C-8.66 6 -9.32 6 -10 6 C-10.33 5.01 -10.66 4.02 -11 3 C-9.7934375 3.0309375 -9.7934375 3.0309375 -8.5625 3.0625 C-6.06645115 3.29633621 -6.06645115 3.29633621 -5 2 C-3.33382885 1.95936168 -1.66611905 1.957279 0 2 C0 1.34 0 0.68 0 0 Z " fill="#2E4D6A" transform="translate(359,373)"/>
<path d="M0 0 C0.66 0 1.32 0 2 0 C2.33 1.32 2.66 2.64 3 4 C4.32 3.67 5.64 3.34 7 3 C7.1875 6.375 7.1875 6.375 7 10 C6.01 10.66 5.02 11.32 4 12 C2.02 11.01 0.04 10.02 -2 9 C-2.25 3.375 -2.25 3.375 0 0 Z " fill="#0D4779" transform="translate(366,338)"/>
<path d="M0 0 C2.97 0 5.94 0 9 0 C8.67 2.31 8.34 4.62 8 7 C6.375 7.6875 6.375 7.6875 4 8 C0.75 6.5625 0.75 6.5625 -2 5 C-1.34 3.35 -0.68 1.7 0 0 Z " fill="#134877" transform="translate(191,347)"/>
<path d="M0 0 C1.32 0.33 2.64 0.66 4 1 C4.33 2.65 4.66 4.3 5 6 C6.65 6 8.3 6 10 6 C10 7.32 10 8.64 10 10 C6.50765756 10.09978121 3.40562852 9.77842938 0 9 C0 8.01 0 7.02 0 6 C-0.66 6 -1.32 6 -2 6 C-2.33 4.68 -2.66 3.36 -3 2 C-2.01 2 -1.02 2 0 2 C0 1.34 0 0.68 0 0 Z " fill="#274D63" transform="translate(284,373)"/>
<path d="M0 0 C0.9590625 0.2784375 0.9590625 0.2784375 1.9375 0.5625 C2.9584375 0.7790625 2.9584375 0.7790625 4 1 C4.33 0.67 4.66 0.34 5 0 C6.66617115 -0.04063832 8.33388095 -0.042721 10 0 C10.33 1.98 10.66 3.96 11 6 C9.34385343 6.38218767 7.67542976 6.71395102 6 7 C5.67 6.67 5.34 6.34 5 6 C3.33382885 5.95936168 1.66611905 5.957279 0 6 C0 4.02 0 2.04 0 0 Z " fill="#47637D" transform="translate(178,375)"/>
<path d="M0 0 C1.134375 0.020625 2.26875 0.04125 3.4375 0.0625 C3.1075 3.0325 2.7775 6.0025 2.4375 9.0625 C0.4575 9.3925 -1.5225 9.7225 -3.5625 10.0625 C-3.75662181 8.58418779 -3.94262131 7.10480684 -4.125 5.625 C-4.22941406 4.80128906 -4.33382812 3.97757812 -4.44140625 3.12890625 C-4.48136719 2.44699219 -4.52132812 1.76507813 -4.5625 1.0625 C-3.5625 0.0625 -3.5625 0.0625 0 0 Z " fill="#6B84A4" transform="translate(166.5625,372.9375)"/>
<path d="M0 0 C0.66 0 1.32 0 2 0 C2 1.32 2 2.64 2 4 C-1.96 4 -5.92 4 -10 4 C-10.33 5.65 -10.66 7.3 -11 9 C-10.01 9.33 -9.02 9.66 -8 10 C-9.32 10 -10.64 10 -12 10 C-12.66 10.66 -13.32 11.32 -14 12 C-14.99 11.01 -15.98 10.02 -17 9 C-15.7260411 6.96166576 -14.38938077 4.96147874 -13 3 C-12.34 3 -11.68 3 -11 3 C-11 2.34 -11 1.68 -11 1 C-5.06 1.99 -5.06 1.99 1 3 C0.67 2.01 0.34 1.02 0 0 Z " fill="#3C6C98" transform="translate(232,333)"/>
<path d="M0 0 C5.35533057 4.22789256 6.1377511 8.37226593 7 15 C5.35 15.33 3.7 15.66 2 16 C1.67 15.34 1.34 14.68 1 14 C0.34 13.01 -0.32 12.02 -1 11 C-0.01 10.67 0.98 10.34 2 10 C2 7.69 2 5.38 2 3 C1.34 3 0.68 3 0 3 C0 2.01 0 1.02 0 0 Z " fill="#345E83" transform="translate(237,327)"/>
<path d="M0 0 C3 1.8125 3 1.8125 6 4 C6 4.99 6 5.98 6 7 C3.6875 8.75 3.6875 8.75 1 10 C0.01 9.67 -0.98 9.34 -2 9 C-1.67 7.68 -1.34 6.36 -1 5 C-1.99 4.67 -2.98 4.34 -4 4 C-2.68 2.68 -1.36 1.36 0 0 Z " fill="#104470" transform="translate(236,344)"/>
<path d="M0 0 C3.63402989 1.91264731 5.52437754 3.14486199 7 7 C7.22705078 9.47363281 7.22705078 9.47363281 7.1953125 12.203125 C7.18886719 13.1828125 7.18242187 14.1625 7.17578125 15.171875 C7.15902344 16.18765625 7.14226562 17.2034375 7.125 18.25 C7.11597656 19.28125 7.10695313 20.3125 7.09765625 21.375 C7.07412011 23.91690287 7.04124023 26.4583328 7 29 C6.67 29 6.34 29 6 29 C5.67 22.4 5.34 15.8 5 9 C3.68 9.33 2.36 9.66 1 10 C1.2475 8.824375 1.2475 8.824375 1.5 7.625 C2.0623707 5.11791961 2.0623707 5.11791961 2 3 C1.34 2.67 0.68 2.34 0 2 C0 1.34 0 0.68 0 0 Z " fill="#6B90B5" transform="translate(286,325)"/>
<path d="M0 0 C1.4540625 0.0309375 1.4540625 0.0309375 2.9375 0.0625 C3.2675 2.0425 3.5975 4.0225 3.9375 6.0625 C2.6175 6.0625 1.2975 6.0625 -0.0625 6.0625 C-0.0625 6.7225 -0.0625 7.3825 -0.0625 8.0625 C0.9275 8.7225 1.9175 9.3825 2.9375 10.0625 C0.9575 10.0625 -1.0225 10.0625 -3.0625 10.0625 C-3.25662181 8.58418779 -3.44262131 7.10480684 -3.625 5.625 C-3.72941406 4.80128906 -3.83382812 3.97757812 -3.94140625 3.12890625 C-3.98136719 2.44699219 -4.02132812 1.76507813 -4.0625 1.0625 C-3.0625 0.0625 -3.0625 0.0625 0 0 Z " fill="#4F718F" transform="translate(138.0625,372.9375)"/>
<path d="M0 0 C0.90105469 0.11085938 1.80210937 0.22171875 2.73046875 0.3359375 C3.76107422 0.47902344 3.76107422 0.47902344 4.8125 0.625 C3.8225 1.12 3.8225 1.12 2.8125 1.625 C2.8125 2.285 2.8125 2.945 2.8125 3.625 C3.4725 4.285 4.1325 4.945 4.8125 5.625 C0.53906908 5.99129408 -1.67562804 5.03314077 -5.1875 2.625 C-5.5175 3.615 -5.8475 4.605 -6.1875 5.625 C-7.1775 5.625 -8.1675 5.625 -9.1875 5.625 C-8.875 3.75 -8.875 3.75 -8.1875 1.625 C-4.73535147 -0.67643236 -3.95270676 -0.51333854 0 0 Z " fill="#34628B" transform="translate(306.1875,337.375)"/>
<path d="M0 0 C2.33944736 0.28730055 4.6739143 0.61936779 7 1 C6.67 3.31 6.34 5.62 6 8 C4.00045254 8.04254356 1.99958364 8.04080783 0 8 C-1 7 -1 7 -1.125 4 C-1 1 -1 1 0 0 Z " fill="#3E597C" transform="translate(336,375)"/>
<path d="M0 0 C0.99 0.33 1.98 0.66 3 1 C2.95875 2.11375 2.9175 3.2275 2.875 4.375 C2.58878141 8.04366025 2.58878141 8.04366025 5 10 C2.03 10 -0.94 10 -4 10 C-3.34 9.67 -2.68 9.34 -2 9 C-2.33 7.35 -2.66 5.7 -3 4 C-2.34 4 -1.68 4 -1 4 C-0.67 2.68 -0.34 1.36 0 0 Z " fill="#114B80" transform="translate(288,345)"/>
<path d="M0 0 C1.66611905 -0.042721 3.33382885 -0.04063832 5 0 C6 1 6 1 6.0625 4.0625 C6.041875 5.031875 6.02125 6.00125 6 7 C4.35 7.33 2.7 7.66 1 8 C-0.42944945 5.64561267 -1.08661261 4.51967567 -0.625 1.75 C-0.41875 1.1725 -0.2125 0.595 0 0 Z " fill="#3D5879" transform="translate(326,375)"/>
<path d="M0 0 C2.97 0 5.94 0 9 0 C9 0.66 9 1.32 9 2 C7.7934375 1.9690625 7.7934375 1.9690625 6.5625 1.9375 C4.06645115 1.70366379 4.06645115 1.70366379 3 3 C2.91251793 4.92667507 2.89302666 6.85651861 2.90234375 8.78515625 C2.90556641 9.95498047 2.90878906 11.12480469 2.91210938 12.33007812 C2.92048828 13.56177734 2.92886719 14.79347656 2.9375 16.0625 C2.94201172 17.29806641 2.94652344 18.53363281 2.95117188 19.80664062 C2.96300392 22.87114117 2.97948827 25.93554721 3 29 C2.34 29 1.68 29 1 29 C0.67 19.43 0.34 9.86 0 0 Z " fill="#214666" transform="translate(328,325)"/>
<path d="M0 0 C0.33 0 0.66 0 1 0 C1 6.93 1 13.86 1 21 C-1.97 21 -4.94 21 -8 21 C-8 20.67 -8 20.34 -8 20 C-5.36 20 -2.72 20 0 20 C-0.37125 18.9275 -0.7425 17.855 -1.125 16.75 C-2.60653929 11.02961217 -1.22786167 5.66705387 0 0 Z M-3 13 C-2.67 13.99 -2.34 14.98 -2 16 C-2.99 16.495 -2.99 16.495 -4 17 C-3.67 15.68 -3.34 14.36 -3 13 Z " fill="#4C7497" transform="translate(323,334)"/>
<path d="M0 0 C7.50769231 -0.36923077 7.50769231 -0.36923077 10 1.5 C10.495 2.2425 10.495 2.2425 11 3 C10.01 3 9.02 3 8 3 C9.65 3.33 11.3 3.66 13 4 C13 4.33 13 4.66 13 5 C9.37 5 5.74 5 2 5 C2 4.34 2 3.68 2 3 C1.34 3 0.68 3 0 3 C0 2.01 0 1.02 0 0 Z " fill="#1D5180" transform="translate(225,338)"/>
<path d="M0 0 C1.65 0 3.3 0 5 0 C4.67 2.64 4.34 5.28 4 8 C1.5625 7.625 1.5625 7.625 -1 7 C-1.33 6.34 -1.66 5.68 -2 5 C-1.0625 2.375 -1.0625 2.375 0 0 Z " fill="#3E526C" transform="translate(314,375)"/>
<path d="M0 0 C2.64 0 5.28 0 8 0 C8 2.31 8 4.62 8 7 C7.01 7.495 7.01 7.495 6 8 C5.34 7.01 4.68 6.02 4 5 C1.94074861 4.27617533 1.94074861 4.27617533 0 4 C0 2.68 0 1.36 0 0 Z " fill="#2B4B64" transform="translate(227,375)"/>
<path d="M0 0 C0.99 0 1.98 0 3 0 C4.15941038 3.47823115 3.70820884 5.45895578 3 9 C3.66 9.33 4.32 9.66 5 10 C3.33388095 10.042721 1.66617115 10.04063832 0 10 C-1 9 -1 9 -1.125 5.5625 C-1 2 -1 2 0 0 Z " fill="#698499" transform="translate(247,373)"/>
<path d="M0 0 C8.58 0 17.16 0 26 0 C26 0.33 26 0.66 26 1 C15.11 1.495 15.11 1.495 4 2 C3.34 3.32 2.68 4.64 2 6 C1.34 6 0.68 6 0 6 C0 4.02 0 2.04 0 0 Z " fill="#365A7C" transform="translate(125,317)"/>
<path d="M0 0 C2.0625 0.4375 2.0625 0.4375 4 1 C4.33 3.31 4.66 5.62 5 8 C2.03 7.505 2.03 7.505 -1 7 C-1.04254356 5.00045254 -1.04080783 2.99958364 -1 1 C-0.67 0.67 -0.34 0.34 0 0 Z M2 3 C3 5 3 5 3 5 Z " fill="#3B5B7A" transform="translate(193,375)"/>
<path d="M0 0 C2.5625 1.5 2.5625 1.5 4 3 C-1.8685408 4.14819277 -7.0885256 3.77313045 -13 3 C-8.80334031 -0.60531219 -5.35736826 -0.76674261 0 0 Z " fill="#587E9B" transform="translate(233,324)"/>
<path d="M0 0 C1.32 0 2.64 0 4 0 C4.6875 2.8125 4.6875 2.8125 5 6 C3.75 7.875 3.75 7.875 2 9 C1.01 9 0.02 9 -1 9 C-1.33 7.68 -1.66 6.36 -2 5 C-1.01 5.33 -0.02 5.66 1 6 C0.67 4.02 0.34 2.04 0 0 Z " fill="#1D5588" transform="translate(183,342)"/>
<path d="M0 0 C2.475 0.99 2.475 0.99 5 2 C5 1.34 5 0.68 5 0 C6.98 0 8.96 0 11 0 C11 0.66 11 1.32 11 2 C11.66 2.33 12.32 2.66 13 3 C8.59085217 4.10228696 4.51617599 4.07654536 0 4 C0 2.68 0 1.36 0 0 Z " fill="#617A92" transform="translate(359,379)"/>
<path d="M0 0 C2.01822917 0.06510417 4.03645833 0.13020833 6.0546875 0.1953125 C5.3946875 2.1753125 4.7346875 4.1553125 4.0546875 6.1953125 C3.7246875 5.5353125 3.3946875 4.8753125 3.0546875 4.1953125 C1.7346875 4.1953125 0.4146875 4.1953125 -0.9453125 4.1953125 C-1.2753125 4.8553125 -1.6053125 5.5153125 -1.9453125 6.1953125 C-2.6053125 4.8753125 -3.2653125 3.5553125 -3.9453125 2.1953125 C-1.9453125 0.1953125 -1.9453125 0.1953125 0 0 Z " fill="#11354D" transform="translate(290.9453125,374.8046875)"/>
<path d="M0 0 C0 1.65 0 3.3 0 5 C-2.31 5.33 -4.62 5.66 -7 6 C-7.625 4.125 -7.625 4.125 -8 2 C-5.14066998 -0.85933002 -3.8625627 -1.2875209 0 0 Z " fill="#1F5076" transform="translate(222,343)"/>
<path d="M0 0 C0 3.3 0 6.6 0 10 C-2.31 10 -4.62 10 -7 10 C-6.34 9.01 -5.68 8.02 -5 7 C-3.68 7 -2.36 7 -1 7 C-1 5.02 -1 3.04 -1 1 C-2.32 1 -3.64 1 -5 1 C-5 1.66 -5 2.32 -5 3 C-6.32 2.67 -7.64 2.34 -9 2 C-5.5647952 -0.29013653 -4.014669 -0.17842973 0 0 Z " fill="#6284A2" transform="translate(178,324)"/>
<path d="M0 0 C1.2065625 0.0309375 1.2065625 0.0309375 2.4375 0.0625 C2.4375 0.7225 2.4375 1.3825 2.4375 2.0625 C1.4475 2.3925 0.4575 2.7225 -0.5625 3.0625 C-0.8925 4.0525 -1.2225 5.0425 -1.5625 6.0625 C0.4175 6.0625 2.3975 6.0625 4.4375 6.0625 C2.2989515 8.2010485 1.30474686 8.48905063 -1.5625 9.0625 C-3.125 7.3125 -3.125 7.3125 -4.5625 5.0625 C-4.14994784 1.45266859 -3.77167388 0.09199205 0 0 Z " fill="#466687" transform="translate(302.5625,325.9375)"/>
<path d="M0 0 C0.99 0 1.98 0 3 0 C3 2.64 3 5.28 3 8 C1.33388095 8.042721 -0.33382885 8.04063832 -2 8 C-3 7 -3 7 -3.0625 4.4375 C-3.041875 3.633125 -3.02125 2.82875 -3 2 C-2.67 2.99 -2.34 3.98 -2 5 C-1.34 5 -0.68 5 0 5 C0 3.35 0 1.7 0 0 Z " fill="#516E87" transform="translate(159,375)"/>
<path d="M0 0 C1.98 0.66 3.96 1.32 6 2 C5.34 4.31 4.68 6.62 4 9 C2.02 9 0.04 9 -2 9 C-1.34 8.67 -0.68 8.34 0 8 C0 5.36 0 2.72 0 0 Z " fill="#5C748A" transform="translate(169,374)"/>
<path d="M0 0 C0.33 0 0.66 0 1 0 C1 6.93 1 13.86 1 21 C-1.31 21 -3.62 21 -6 21 C-4.625 19.5 -4.625 19.5 -3 18 C-2.34 18 -1.68 18 -1 18 C-0.505 9.09 -0.505 9.09 0 0 Z " fill="#134875" transform="translate(207,332)"/>
<path d="M0 0 C0.99 0 1.98 0 3 0 C4.01405257 1.32267727 5.01268258 2.65724831 6 4 C8.08334635 5.2516467 8.08334635 5.2516467 10 6 C9.67 6.66 9.34 7.32 9 8 C6.69 7.67 4.38 7.34 2 7 C2 5.35 2 3.7 2 2 C1.34 2 0.68 2 0 2 C0 1.34 0 0.68 0 0 Z " fill="#597895" transform="translate(223,375)"/>
<path d="M0 0 C0.66 0.33 1.32 0.66 2 1 C2 1.99 2 2.98 2 4 C1.34 4 0.68 4 0 4 C0.309375 5.175625 0.309375 5.175625 0.625 6.375 C0.74875 7.24125 0.8725 8.1075 1 9 C0.34 9.66 -0.32 10.32 -1 11 C-2.89213369 8.61426621 -4.02391783 6.92824652 -5 4 C-4.360625 3.71125 -3.72125 3.4225 -3.0625 3.125 C-0.84793921 2.17176549 -0.84793921 2.17176549 0 0 Z " fill="#104675" transform="translate(371,326)"/>
<path d="M0 0 C-0.33 0.66 -0.66 1.32 -1 2 C-1.58007812 1.91621094 -2.16015625 1.83242188 -2.7578125 1.74609375 C-7.42315303 1.13790579 -11.35442117 0.92794335 -16 2 C-15.67 1.01 -15.34 0.02 -15 -1 C-10.22720437 -3.01925969 -4.35840822 -2.78938126 0 0 Z " fill="#7D95AF" transform="translate(271,326)"/>
<path d="M0 0 C0.33 0 0.66 0 1 0 C1 2.31 1 4.62 1 7 C-1.62315032 8.31157516 -3.23033436 7.89649988 -6.125 7.5625 C-7.03507812 7.46066406 -7.94515625 7.35882813 -8.8828125 7.25390625 C-9.58148438 7.17011719 -10.28015625 7.08632813 -11 7 C-10.67 5.68 -10.34 4.36 -10 3 C-9.67 3.66 -9.34 4.32 -9 5 C-6.12635209 5.41746608 -6.12635209 5.41746608 -3 5 C-1.1375562 2.59141286 -1.1375562 2.59141286 0 0 Z " fill="#376588" transform="translate(315,342)"/>
<path d="M0 0 C1.65 0 3.3 0 5 0 C5 2.31 5 4.62 5 7 C3.68 7 2.36 7 1 7 C0.67 4.69 0.34 2.38 0 0 Z " fill="#124675" transform="translate(342,326)"/>
<path d="M0 0 C0.86625 0.495 0.86625 0.495 1.75 1 C4.19883862 2.27075898 4.19883862 2.27075898 8 2 C8 3.32 8 4.64 8 6 C5.33333333 6 2.66666667 6 0 6 C0 4.02 0 2.04 0 0 Z " fill="#5D7990" transform="translate(286,377)"/>
<path d="M0 0 C1.9375 0.1875 1.9375 0.1875 4 1 C5.375 2.8125 5.375 2.8125 6 5 C5.125 7.25 5.125 7.25 4 9 C3.34 9 2.68 9 2 9 C2.33 7.35 2.66 5.7 3 4 C2.01 4 1.02 4 0 4 C-0.33 3.01 -0.66 2.02 -1 1 C-0.67 0.67 -0.34 0.34 0 0 Z " fill="#07467D" transform="translate(316,330)"/>
<path d="M0 0 C2.97 0 5.94 0 9 0 C9 1.32 9 2.64 9 4 C6.03 3.505 6.03 3.505 3 3 C2.34 4.32 1.68 5.64 1 7 C0.67 4.69 0.34 2.38 0 0 Z " fill="#20486B" transform="translate(246,325)"/>
<path d="M0 0 C1.485 0.99 1.485 0.99 3 2 C3.34057617 4.06298828 3.34057617 4.06298828 3.29296875 6.5703125 C3.28330078 7.46621094 3.27363281 8.36210937 3.26367188 9.28515625 C3.23853516 10.22230469 3.21339844 11.15945313 3.1875 12.125 C3.17396484 13.06988281 3.16042969 14.01476562 3.14648438 14.98828125 C3.11106306 17.32608779 3.06167271 19.66276237 3 22 C2.67 22 2.34 22 2 22 C1.67 16.06 1.34 10.12 1 4 C0.34 3.67 -0.32 3.34 -1 3 C-0.67 2.01 -0.34 1.02 0 0 Z " fill="#4A6F8C" transform="translate(281,331)"/>
<path d="M0 0 C2.97 0.495 2.97 0.495 6 1 C7.125 5.75 7.125 5.75 6 8 C5.01 7.67 4.02 7.34 3 7 C3.66 6.67 4.32 6.34 5 6 C5 5.34 5 4.68 5 4 C3.68 4 2.36 4 1 4 C0.67 2.68 0.34 1.36 0 0 Z " fill="#3D6685" transform="translate(276,375)"/>
<path d="M0 0 C0.99 0 1.98 0 3 0 C3 3.3 3 6.6 3 10 C2.01 10 1.02 10 0 10 C0.33 8.35 0.66 6.7 1 5 C0.01 4.67 -0.98 4.34 -2 4 C-1.01 3.67 -0.02 3.34 1 3 C0.67 2.01 0.34 1.02 0 0 Z " fill="#1E4060" transform="translate(376,373)"/>
<path d="M0 0 C-0.50603992 2.16874252 -0.99983813 3.99967627 -2 6 C-3.65 5.67 -5.3 5.34 -7 5 C-5.22678182 1.07358831 -4.52021524 0 0 0 Z " fill="#335F82" transform="translate(222,327)"/>
<path d="M0 0 C3.37503669 1.1858237 5.64722731 2.27573689 8 5 C7.67 5.66 7.34 6.32 7 7 C4.69 6.01 2.38 5.02 0 4 C0 2.68 0 1.36 0 0 Z " fill="#4C708F" transform="translate(315,325)"/>
<path d="M0 0 C2.0625 0.4375 2.0625 0.4375 4 1 C3.38722388 3.96175123 2.74627478 5.38058783 1 8 C0.34 7.67 -0.32 7.34 -1 7 C-1.04254356 5.00045254 -1.04080783 2.99958364 -1 1 C-0.67 0.67 -0.34 0.34 0 0 Z " fill="#214465" transform="translate(251,375)"/>
<path d="M0 0 C2.5 2.3125 2.5 2.3125 5 5 C5 5.99 5 6.98 5 8 C4.01 8 3.02 8 2 8 C2 7.34 2 6.68 2 6 C1.01 5.67 0.02 5.34 -1 5 C-0.67 3.35 -0.34 1.7 0 0 Z " fill="#134E84" transform="translate(183,328)"/>
<path d="M0 0 C1.66611905 -0.042721 3.33382885 -0.04063832 5 0 C6 1 6 1 6.0625 4.0625 C6.041875 5.031875 6.02125 6.00125 6 7 C3.03 7 0.06 7 -3 7 C1 5 1 5 4 4 C4.33 3.34 4.66 2.68 5 2 C3.35 1.67 1.7 1.34 0 1 C0 0.67 0 0.34 0 0 Z " fill="#17476D" transform="translate(151,317)"/>
<path d="M0 0 C1.65 0 3.3 0 5 0 C4.01 0.66 3.02 1.32 2 2 C2 2.66 2 3.32 2 4 C2.66 4 3.32 4 4 4 C4 5.32 4 6.64 4 8 C2.68 8 1.36 8 0 8 C-0.98120464 4.94736336 -0.98120464 3.05263664 0 0 Z " fill="#607692" transform="translate(347,375)"/>
<path d="M0 0 C1.485 0.99 1.485 0.99 3 2 C3 2.66 3 3.32 3 4 C3.99 4 4.98 4 6 4 C6.33 5.32 6.66 6.64 7 8 C4.69 8 2.38 8 0 8 C0.185625 7.236875 0.37125 6.47375 0.5625 5.6875 C1.22819173 2.91032625 1.22819173 2.91032625 0 0 Z " fill="#6D8BA1" transform="translate(147,375)"/>
<path d="M0 0 C1.65 0 3.3 0 5 0 C6.04449911 3.13349732 5.93423645 3.98968256 5 7 C3.35 6.67 1.7 6.34 0 6 C0.99 5.67 1.98 5.34 3 5 C3 4.34 3 3.68 3 3 C2.34 3 1.68 3 1 3 C0.67 2.01 0.34 1.02 0 0 Z " fill="#1A3858" transform="translate(348,376)"/>
<path d="M0 0 C1.98 0.99 3.96 1.98 6 3 C5.67 4.32 5.34 5.64 5 7 C6.98 7 8.96 7 11 7 C11 7.33 11 7.66 11 8 C8.69 8 6.38 8 4 8 C3.34 6.02 2.68 4.04 2 2 C1.34 2 0.68 2 0 2 C0 1.34 0 0.68 0 0 Z " fill="#5D7A99" transform="translate(365,347)"/>
<path d="M0 0 C1.32 0.33 2.64 0.66 4 1 C3.67 3.64 3.34 6.28 3 9 C2.34 9 1.68 9 1 9 C0.67 6.03 0.34 3.06 0 0 Z " fill="#152A42" transform="translate(166,373)"/>
<path d="M0 0 C0.99 0 1.98 0 3 0 C3 1.32 3 2.64 3 4 C3.99 4.33 4.98 4.66 6 5 C3.03 5 0.06 5 -3 5 C-2.34 4.67 -1.68 4.34 -1 4 C-0.34786708 1.97536745 -0.34786708 1.97536745 0 0 Z " fill="#28577F" transform="translate(287,350)"/>
<path d="M0 0 C3 1.8125 3 1.8125 6 4 C6 4.99 6 5.98 6 7 C5.01 7.33 4.02 7.66 3 8 C2.67 6.35 2.34 4.7 2 3 C0.35 3 -1.3 3 -3 3 C-2.01 2.01 -1.02 1.02 0 0 Z " fill="#4D6E84" transform="translate(236,344)"/>
<path d="M0 0 C0.99 0.33 1.98 0.66 3 1 C3 1.66 3 2.32 3 3 C3.66 3.33 4.32 3.66 5 4 C4.34 4 3.68 4 3 4 C3 5.32 3 6.64 3 8 C2.01 8 1.02 8 0 8 C0 5.36 0 2.72 0 0 Z " fill="#2A567D" transform="translate(296,342)"/>
<path d="M0 0 C2 1.3125 2 1.3125 4 3 C4 3.99 4 4.98 4 6 C2.68 6.33 1.36 6.66 0 7 C-0.93423645 3.98968256 -1.04449911 3.13349732 0 0 Z " fill="#5D7F97" transform="translate(296,376)"/>
<path d="M0 0 C0.99 0 1.98 0 3 0 C3.66 1.98 4.32 3.96 5 6 C3.35 6 1.7 6 0 6 C0 4.02 0 2.04 0 0 Z " fill="#2A4B65" transform="translate(178,375)"/>
<path d="M0 0 C0.99 0 1.98 0 3 0 C4.35439668 2.70879335 4.06501451 5.00933268 4 8 C3.34 8 2.68 8 2 8 C0.74335022 5.09399739 0 3.20395416 0 0 Z " fill="#335472" transform="translate(298,375)"/>
<path d="M0 0 C1.485 0.99 1.485 0.99 3 2 C4.175625 2.144375 5.35125 2.28875 6.5625 2.4375 C8.2640625 2.7159375 8.2640625 2.7159375 10 3 C10.99 4.485 10.99 4.485 12 6 C11.01 5.67 10.02 5.34 9 5 C7.43881572 4.93259135 5.8749748 4.91485544 4.3125 4.9375 C3.50425781 4.94652344 2.69601563 4.95554687 1.86328125 4.96484375 C1.24839844 4.97644531 0.63351563 4.98804688 0 5 C0 3.35 0 1.7 0 0 Z " fill="#557A9B" transform="translate(222,344)"/>
<path d="M0 0 C0.99 0 1.98 0 3 0 C3.66 1.98 4.32 3.96 5 6 C4.01 6 3.02 6 2 6 C2 5.34 2 4.68 2 4 C1.01 4.33 0.02 4.66 -1 5 C-0.67 3.35 -0.34 1.7 0 0 Z " fill="#1D4967" transform="translate(368,375)"/>
<path d="M0 0 C1.65 0 3.3 0 5 0 C5 0.99 5 1.98 5 3 C2.36 3 -0.28 3 -3 3 C-2.01 2.67 -1.02 2.34 0 2 C0 1.34 0 0.68 0 0 Z " fill="#0C487C" transform="translate(305,350)"/>
<path d="M0 0 C2.0625 0.4375 2.0625 0.4375 4 1 C2.6875 3 2.6875 3 1 5 C0.01 5 -0.98 5 -2 5 C-1.125 1.125 -1.125 1.125 0 0 Z " fill="#3A5D83" transform="translate(299,338)"/>
<path d="M0 0 C4.02992782 0.55312735 8.02022924 1.1558062 12 2 C8.00439392 4.83022097 4.57262677 3.76210446 0 3 C0 2.01 0 1.02 0 0 Z " fill="#0E406D" transform="translate(301,329)"/>
<path d="M0 0 C2.97 0 5.94 0 9 0 C8.67 0.99 8.34 1.98 8 3 C5.36 2.67 2.72 2.34 0 2 C0 1.34 0 0.68 0 0 Z " fill="#7690AC" transform="translate(306,324)"/>
<path d="M0 0 C1.98 0 3.96 0 6 0 C6 0.99 6 1.98 6 3 C4.02 3 2.04 3 0 3 C0 2.01 0 1.02 0 0 Z " fill="#395A78" transform="translate(289,375)"/>
<path d="M0 0 C0.99 0 1.98 0 3 0 C3 1.65 3 3.3 3 5 C0.03 4.505 0.03 4.505 -3 4 C-2.67 3.34 -2.34 2.68 -2 2 C-1.34 2 -0.68 2 0 2 C0 1.34 0 0.68 0 0 Z " fill="#506C80" transform="translate(359,373)"/>
<path d="M0 0 C0.99 0.33 1.98 0.66 3 1 C3 2.65 3 4.3 3 6 C1.68 6 0.36 6 -1 6 C-0.67 4.02 -0.34 2.04 0 0 Z " fill="#0C477B" transform="translate(219,342)"/>
<path d="M0 0 C2.4294516 3.6441774 2.16179575 5.71241272 2 10 C1.34 10 0.68 10 0 10 C-0.74926071 6.33694766 -1.2380014 3.57644848 0 0 Z " fill="#144772" transform="translate(188,329)"/>
<path d="M0 0 C1.32 0 2.64 0 4 0 C4 1.98 4 3.96 4 6 C2 5 2 5 0 3 C0 2.01 0 1.02 0 0 Z " fill="#184876" transform="translate(173,325)"/>
<path d="M0 0 C3 3.875 3 3.875 3 5 C1.35 5 -0.3 5 -2 5 C-2.33 3.68 -2.66 2.36 -3 1 C-2.01 0.67 -1.02 0.34 0 0 Z " fill="#2F5C84" transform="translate(167,325)"/>
<path d="M0 0 C0.66 0 1.32 0 2 0 C2 1.65 2 3.3 2 5 C0.35 4.67 -1.3 4.34 -3 4 C-2.34 3.67 -1.68 3.34 -1 3 C-0.67 2.01 -0.34 1.02 0 0 Z " fill="#4C6A82" transform="translate(316,378)"/>
<path d="M0 0 C0.33 0.66 0.66 1.32 1 2 C0.01 3.485 0.01 3.485 -1 5 C-2.65 4.67 -4.3 4.34 -6 4 C-5.34 3.67 -4.68 3.34 -4 3 C-4 2.34 -4 1.68 -4 1 C-2.68 0.67 -1.36 0.34 0 0 Z " fill="#15283C" transform="translate(142,378)"/>
<path d="M0 0 C0.66 0 1.32 0 2 0 C2 2.64 2 5.28 2 8 C1.34 8 0.68 8 0 8 C-0.38063221 5.6739143 -0.71269945 3.33944736 -1 1 C-0.67 0.67 -0.34 0.34 0 0 Z " fill="#16324B" transform="translate(163,373)"/>
<path d="M0 0 C0.33 0.66 0.66 1.32 1 2 C3.31 2 5.62 2 8 2 C7.01 2.33 6.02 2.66 5 3 C5 3.66 5 4.32 5 5 C4.01 5 3.02 5 2 5 C2 4.34 2 3.68 2 3 C1.01 2.67 0.02 2.34 -1 2 C-0.67 1.34 -0.34 0.68 0 0 Z " fill="#104576" transform="translate(216,331)"/>
<path d="M0 0 C0.66 0.33 1.32 0.66 2 1 C1.67 2.65 1.34 4.3 1 6 C-0.65 6 -2.3 6 -4 6 C-2.68 4.02 -1.36 2.04 0 0 Z " fill="#557595" transform="translate(365,328)"/>
</svg>
